<svg
  xmlns="http://www.w3.org/2000/svg"
  xmlns:xlink="http://www.w3.org/1999/xlink"
  id="eHpUDbdyFS01"
  viewBox="0 0 1065 207.23"
  shape-rendering="geometricPrecision"
  text-rendering="geometricPrecision"
>
  <script xmlns="" />
  <style>
    <![CDATA[
      #rectangle {
        animation: rectangle__rd 3s linear 1 normal forwards
      }
      path,rect {
        -webkit-filter: invert(100%); /* safari 6.0 - 9.0 */
                filter: invert(100%);
      }
      @keyframes rectangle__rd {
        0% {
          rx: 25.91px;
          ry: 25.91px;
        }
        66.666667% {
          rx: 25.91px;
          ry: 25.91px;
        }
        100% {
          rx: 0px;
          ry: 0px
        }
      }

      #rectangle_to {
        animation: rectangle_to__to 3000ms linear 1 normal forwards
      }

      @keyframes rectangle_to__to {
        0% {
          transform: translate(231.711798px,247.709999px)
        }
        66.666667% {
          transform: translate(231.711798px,247.709999px)
        }
        100% {
          transform: translate(205.81px,273.61px)
        }
      }

      #eHpUDbdyFS04_tr {
        animation: eHpUDbdyFS04_tr__tr 3000ms linear 1 normal forwards
      }

      @keyframes eHpUDbdyFS04_tr__tr {
        0% {
          transform: translate(257.609985px,273.61499px) rotate(-719.999998deg)
        }
        100% {
          transform: translate(257.609985px,273.61499px) rotate(0deg)
        }
      }

      .letter-c,
    .letter-y,
    .letter-p,
    .letter-h,
    .letter-e,
    .letter-r {
      stroke: currentColor;
      stroke-width: 1px;
      fill-opacity: 0;
      animation: line-stroke 1s linear forwards;
    }

    .letter-c {
      stroke-dasharray: 433.44;
      stroke-dashoffset: 433.44;
      animation-delay: 0s;
    }
    .letter-y {
      stroke-dasharray: 392.88;
      stroke-dashoffset: 392.88;
      animation-delay: 0.5s;
    }
    .letter-p {
      stroke-dasharray: 473.47;
      stroke-dashoffset: 473.47;
      animation-delay: 1s;
    }
    .letter-h {
      stroke-dasharray: 431.79;
      stroke-dashoffset: 431.79;
      animation-delay: 1.5s;
    }
    .letter-e {
      stroke-dasharray: 423.83;
      stroke-dashoffset: 423.83;
      animation-delay: 2s;
    }
    .letter-r {
      stroke-dasharray: 241.41;
      stroke-dashoffset: 241.41;
      animation-delay: 2.5s;
    }

    .word-fuel {
      opacity: 0;
      animation: word .8s linear forwards;
      animation-delay: 3s;
    }

    @keyframes line-stroke {
      75% {
        stroke-dashoffset: 0;
        fill-opacity: 0;
      }
      100% {
        fill-opacity: 1;
      }
    }
    @keyframes word {
      100% {
        opacity: 1;
      }
    }
    ]]>
  </style>
  <g transform="translate(-154-170)">
    <g id="rectangle_to" transform="translate(231.711798,247.709999)">
      <rect
        id="rectangle"
        width="51.81"
        height="51.81"
        rx="25.91"
        ry="25.91"
        transform="translate(0,0)"
      />
    </g>
    <g
      id="eHpUDbdyFS04_tr"
      transform="translate(257.609985,273.61499) rotate(-719.999998)"
    >
      <g transform="translate(-257.609985,-273.61499)">
        <path
          d="M51.81,103.61h-51.81C0.00883,46.399244,46.379247,0.019875,103.59,0l.02,51.81c-28.60835,0-51.8,23.19165-51.8,51.8Z"
          transform="translate(154 170)"
          fill-rule="evenodd"
        />
        <path
          d="M155.41,103.61h51.81c-.004415,57.218107-46.381895,103.60454-103.6,103.62l-.01-51.81c28.60652-.004417,51.795583-23.19348,51.8-51.8Z"
          transform="translate(154 170)"
          fill-rule="evenodd"
        />
      </g>
    </g>
    <path
      class="letter-p"
      d="M446.48,71.82h16.24v11.86c2.578022-3.744867,5.854615-6.956946,9.65-9.46q5.78-3.82,14.36-3.83c4.209561-.010302,8.379586.812148,12.27,2.42c3.961807,1.625735,7.548797,4.045423,10.54,7.11c3.20791,3.329339,5.741156,7.248059,7.46,11.54c1.952,5,1.973,26.661.06,31.67-1.666585,4.299937-4.175723,8.22344-7.38,11.54-3.005997,3.074686-6.614735,5.495264-10.6,7.11-3.898118,1.592737-8.069046,2.411299-12.28,2.41q-8.72,0-14.49-3.75c-3.658942-2.327465-6.881128-5.27888-9.52-8.72v32.47h-16.28v-92.32ZM483,130.1c2.699374.017475,5.372802-.527427,7.85-1.6c2.428741-1.054569,4.621821-2.584626,6.45-4.5c1.912357-2.05597,3.394699-4.473276,4.36-7.11c1.104915-3.029601,1.647147-6.235547,1.6-9.46v-.27c.040856-3.178352-.501445-6.337255-1.6-9.32-.974353-2.653242-2.455146-5.091797-4.36-7.18-3.688402-3.973996-8.878277-6.213264-14.3-6.17-2.718271-.012509-5.410285.532019-7.91,1.6-2.489623,1.072217-4.730057,2.648692-6.58,4.63-1.929636,2.097492-3.458253,4.531077-4.51,7.18-1.151928,2.949442-1.722408,6.093875-1.68,9.26v.27c-.038656,3.188558.531543,6.355199,1.68,9.33c1.024352,2.655154,2.548565,5.089142,4.49,7.17c3.778749,3.969783,9.029392,6.202483,14.51,6.17Z"
      transform="translate(154.532383 170)"
      stroke="#0900ff"
      stroke-width="4"
      stroke-dasharray="473.47132"
    />
    <path
      class="letter-h"
      d="M530.48,45.55h16.23v38.16c1.151137-1.686842,2.431661-3.281646,3.83-4.77c1.435984-1.526556,3.054888-2.870045,4.82-4c1.868057-1.178304,3.886161-2.099905,6-2.74c2.415755-.704851,4.923867-1.041963,7.44-1q12.07,0,18.65,7.39t6.57,19.85v45.09h-16.18v-40.23q0-8.33-4-12.82t-11.16-4.48c-4.330188-.16872-8.527211,1.515181-11.54,4.63q-4.42,4.62-4.43,12.95v40h-16.23v-98Z"
      transform="translate(154 170)"
      stroke="#0900ff"
      stroke-width="4"
      stroke-dasharray="431.794882"
    />
    <path
      class="letter-e"
      d="M659.75,101.15c-.241649-2.531935-.830504-5.018584-1.75-7.39-.831795-2.212383-2.073509-4.247981-3.66-6-1.546508-1.679992-3.408565-3.039158-5.48-4-2.276264-1.02818-4.75274-1.537138-7.25-1.49-4.729612-.135487-9.290798,1.761064-12.53,5.21-3.419719,3.772043-5.524886,8.550774-6,13.62Zm-16.25,42.4c-4.940254.04128-9.841336-.879159-14.43-2.71-8.855898-3.490033-15.886051-10.469558-19.44-19.3-1.945127-4.797096-2.914023-9.933945-2.85-15.11v-.27c-.036268-4.947382.838299-9.859193,2.58-14.49c1.63307-4.382011,4.094534-8.408627,7.25-11.86c3.089278-3.381605,6.831074-6.102911,11-8c4.429517-1.98305,9.237209-2.979392,14.09-2.92c5.171803-.109848,10.300947.957014,15,3.12c4.144597,1.973258,7.799244,4.842327,10.7,8.4c2.901685,3.64175,5.083834,7.802427,6.43,12.26c1.46489,4.761539,2.196601,9.718288,2.17,14.7c0,.72,0,1.46-.07,2.24s-.11,1.55-.2,2.36h-52.55q1.35,8.8,7,13.48c3.829072,3.147854,8.6648,4.80947,13.62,4.68c3.625858.094816,7.226047-.633427,10.53-2.13c3.252611-1.643906,6.225765-3.790246,8.81-6.36l9.62,8.53c-3.397638,4.032943-7.565628,7.347617-12.26,9.75-5.292141,2.562798-11.122098,3.817954-17,3.66Z"
      transform="translate(154 170)"
      stroke="#0900ff"
      stroke-width="4"
      stroke-dasharray="423.82692"
    />
    <path
      class="letter-r"
      d="M694.59,70.39h16.41v16.13c2.022354-5.095754,5.338013-9.576374,9.62-13q6.23-4.87,15.71-4.47v17.33h-.95c-3.378015-.040524-6.733354.556584-9.89,1.76-2.942093,1.153389-5.582378,2.9626-7.72,5.29-2.284705,2.563011-3.990101,5.588384-5,8.87-1.2454,4.009534-1.842915,8.192135-1.77,12.39v27.23h-16.41Z"
      transform="translate(154.532382 170)"
      stroke="#0900ff"
      stroke-width="4"
      stroke-dasharray="241.409978"
    />
    <path
      class="word-fuel"
	  stroke-width="4"
      data-name="Path 10"
 d="m 83.404067,196.13732 c -15.075198,-5.40817 -23.246471,-17.97386 -23.160596,-35.61621 0.07211,-14.80254 5.605673,-25.88334 16.377759,-32.79578 5.639058,-3.61855 7.817562,-4.25217 16.310518,-4.74383 20.670432,-1.19659 32.582542,9.53743 35.129192,31.65486 l 0.89158,7.74312 H 100.50264 72.052764 l 0.863488,4.64587 c 1.194818,6.42842 4.214146,11.81856 8.765521,15.64833 2.120957,1.78461 4.231611,3.26908 4.69035,3.29877 0.458879,0.0281 3.211308,0.51371 6.116761,1.0757 7.255997,1.40342 15.564286,-0.39145 22.038916,-4.76115 l 5.43458,-3.6677 3.10928,3.95932 3.10928,3.95929 -2.76226,2.21216 c -10.87356,8.70807 -27.682667,11.81124 -40.014613,7.38725 z M 115.58538,149.06136 C 113.37115,139.41583 105.07214,132.646 95.462231,132.646 c -10.844852,0 -18.368121,5.87599 -21.810368,17.03481 l -0.859882,2.7875 h 21.787751 21.787748 z m -168.705245,-2.47799 c -10.37951,-27.08547 -18.87186,-49.664312 -18.87186,-50.175259 0,-0.510901 2.93589,-0.928949 6.52418,-0.928949 h 6.52413 l 14.53499,39.334908 c 7.99418,21.63421 15.16857,41.206 15.943,43.49285 1.37977,4.07447 1.57648,3.68888 9.79654,-19.20285 4.613703,-12.84847 11.6580517,-32.28086 15.6541367,-43.18317 l 7.265689,-19.822298 6.6383853,-0.380214 c 5.045044,-0.288906 6.502499,0.0094 6.07223,1.238879 -0.311382,0.890412 -8.8772913,23.500873 -19.0352273,50.245503 L -20.542655,195.8294 h -6.8527 -6.85265 z m 83.956418,13.3183 v -35.92791 h 6.194489 6.194442 v 35.92791 35.92797 h -6.194442 -6.194489 z m 117.232667,1.75456 c -5.96482,-18.79534 -11.14813,-34.96291 -11.51842,-35.92792 -0.53122,-1.38431 0.78538,-1.75455 6.23855,-1.75455 h 6.91189 l 2.03198,6.98984 c 1.11761,3.84443 4.93253,17.33822 8.47756,29.98619 3.54507,12.64801 6.75067,22.46451 7.12358,21.81444 0.37272,-0.65001 2.66089,-7.59318 5.08447,-15.42919 2.42358,-7.83601 6.4339,-20.79793 8.91184,-28.80429 l 4.50539,-14.55699 h 5.87964 5.8796 l 9.228,29.71638 c 5.07539,16.344 9.50676,29.71755 9.84745,29.71905 0.34088,0.002 4.27554,-13.23153 8.74413,-29.40669 l 8.12468,-29.4093 6.43231,-0.3746 c 3.53782,-0.20602 6.43236,0.0375 6.43236,0.53689 0,0.50125 -3.31058,11.26229 -7.35686,23.91349 -4.04629,12.65114 -9.09821,28.46345 -11.22652,35.13845 l -3.86965,12.13637 -7.51874,-0.36711 -7.51873,-0.36664 -7.99287,-26.01678 c -4.39606,-14.30925 -8.29779,-26.85307 -8.67047,-27.87516 -0.3877,-1.06314 -1.64424,1.32251 -2.9365,5.57505 -1.24243,4.08833 -5.21229,16.7606 -8.82198,28.16055 l -6.56305,20.72718 -7.50725,0.0234 -7.5073,0.0234 z M 30.836553,101.05416 v -8.052803 h 6.194489 6.194442 v 8.052803 8.05286 h -6.194442 -6.194489 z"


      transform="translate(970, 117)"
    />
    <path
      class="letter-c"
      d="M310.4,143.55c-6.605045.065839-13.153373-1.224086-19.24-3.79-5.711167-2.423302-10.88957-5.946926-15.24-10.37-4.339011-4.465402-7.766222-9.733593-10.09-15.51-2.460061-6.065246-3.703645-12.554986-3.66-19.1v-.27c-.043372-6.505906,1.175818-12.958442,3.59-19c4.665264-11.793871,13.865182-21.224327,25.54-26.18c6.253687-2.634976,12.984445-3.949125,19.77-3.86c3.979336-.033466,7.952162.328309,11.86,1.08c3.372257.665448,6.664125,1.687872,9.82,3.05c2.901848,1.271677,5.666197,2.836466,8.25,4.67c2.529486,1.82715,4.925554,3.832228,7.17,6L337.47,72.6c-3.590583-3.412125-7.639602-6.306686-12.03-8.6-4.503947-2.227128-9.476331-3.341628-14.5-3.25-4.318974-.041882-8.595082.85907-12.53,2.64-3.779811,1.700748-7.180182,4.142214-10,7.18-2.810934,3.105443-4.988352,6.729944-6.41,10.67-1.549422,4.157796-2.328801,8.562979-2.3,13v.27c-.023569,4.459363.755512,8.886577,2.3,13.07c1.450592,3.976186,3.657946,7.633601,6.5,10.77c2.805493,3.071703,6.208226,5.538685,10,7.25c3.934918,1.78093,8.211026,2.681882,12.53,2.64c5.168076.143337,10.291016-.997385,14.91-3.32c4.4835-2.446867,8.625691-5.472818,12.32-9l10.7,10.84c-2.350287,2.542628-4.909215,4.88413-7.65,7-2.684423,2.040919-5.565284,3.809633-8.6,5.28-3.216079,1.537022-6.607862,2.675452-10.1,3.39-3.989379.801308-8.051107,1.186703-12.12,1.15Z"
      transform="translate(154 180)"
      stroke="#0900ff"
      stroke-width="4"
      stroke-dasharray="433.442591"
    />
    <path
      class="letter-y"
      d="M379.08,164c-3.085449.045887-6.162086-.341217-9.14-1.15-2.70248-.779624-5.313959-1.845671-7.79-3.18l5.55-12.19c1.497278.80481,3.063513,1.474141,4.68,2c1.597972.503967,3.264456.756975,4.94.75c2.085189.079602,4.137183-.539868,5.83-1.76c1.53-1.18,3-3.34,4.33-6.51l-29.8-71.53h17.47l20.32,53.11L414,70.39h17.1L402.65,144c-1.217274,3.236666-2.712874,6.3617-4.47,9.34-1.36443,2.326765-3.10462,4.411614-5.15,6.17-1.83099,1.546464-3.947645,2.718609-6.23,3.45-2.502403.755223-5.106416,1.119515-7.72,1.08Z"
      transform="translate(154 170.073707)"
      stroke="#0900ff"
      stroke-width="4"
      stroke-dasharray="392.882781"
    />
  </g>
  <!--Begining of TestComplete File-->
  <SCRIPT xmlns="" isTestCompleteHiddenNode="1" />
  <!--Ending of TestComplete File-->
</svg>
