<svg width="16" height="17" viewBox="0 0 16 17" fill="none" xmlns="http://www.w3.org/2000/svg">
<path d="M1.6 5.28578H12.8V3.76197H1.6V5.28578ZM1.6 15.9525C1.16 15.9525 0.783333 15.8032 0.47 15.5048C0.156667 15.2064 0 14.8477 0 14.4286V3.76197C0 3.34293 0.156667 2.9842 0.47 2.68578C0.783333 2.38737 1.16 2.23817 1.6 2.23817H2.4V0.714355H4V2.23817H10.4V0.714355H12V2.23817H12.8C13.24 2.23817 13.6167 2.38737 13.93 2.68578C14.2433 2.9842 14.4 3.34293 14.4 3.76197V8.08578C14.1467 7.9715 13.8867 7.87626 13.62 7.80007C13.3533 7.72388 13.08 7.66674 12.8 7.62864V6.80959H1.6V14.4286H6.64C6.73333 14.708 6.84333 14.9747 6.97 15.2286C7.09667 15.4826 7.24667 15.7239 7.42 15.9525H1.6ZM12 16.7144C10.8933 16.7144 9.95 16.3429 9.17 15.6001C8.39 14.8572 8 13.9588 8 12.9048C8 11.8509 8.39 10.9525 9.17 10.2096C9.95 9.46674 10.8933 9.09531 12 9.09531C13.1067 9.09531 14.05 9.46674 14.83 10.2096C15.61 10.9525 16 11.8509 16 12.9048C16 13.9588 15.61 14.8572 14.83 15.6001C14.05 16.3429 13.1067 16.7144 12 16.7144ZM13.34 14.7144L13.9 14.181L12.4 12.7525V10.6191H11.6V13.0572L13.34 14.7144Z" fill="white"/>
</svg>
