<svg width="25" height="29" viewBox="0 0 25 29" fill="none" xmlns="http://www.w3.org/2000/svg">
<path d="M6.47306 2.63304C7.9193 1.6852 9.43687 1.10599 11.0258 0.895411C12.6147 0.684826 14.1512 0.805248 15.6354 1.25668C17.1196 1.7081 18.5033 2.47591 19.7865 3.56009C21.0698 4.64427 22.1289 6.00722 22.9639 7.64891C24.2919 10.2598 24.8157 13.0483 24.5353 16.0143C24.2549 18.9804 23.2132 21.5685 21.41 23.7788L20.1123 21.2273C21.3257 19.4562 22.0023 17.4634 22.1421 15.2488C22.2819 13.0342 21.8589 10.9577 20.873 9.01927C19.5249 6.36882 17.5728 4.65487 15.0168 3.87741C12.4607 3.09995 10.0152 3.47634 7.68027 5.00657C5.34537 6.53681 3.83547 8.75269 3.15057 11.6542C2.46566 14.5557 2.79724 17.3317 4.1453 19.9822C5.13119 21.9206 6.50388 23.3747 8.26336 24.3446C10.0228 25.3144 11.8815 25.6457 13.8394 25.3384L15.1371 27.8899C12.5493 28.5574 10.0538 28.2874 7.65081 27.08C5.24777 25.8726 3.38228 23.9634 2.05434 21.3525C1.21935 19.7108 0.709099 17.9882 0.523586 16.1846C0.338073 14.3809 0.444157 12.6367 0.841842 10.952C1.23953 9.26724 1.91592 7.69652 2.87103 6.23983C3.82613 4.78313 5.02681 3.58087 6.47306 2.63304ZM10.0947 9.75365L18.3401 12.2616L17.7215 14.8823L13.449 13.6079L19.5907 25.6832L17.4997 27.0536L11.358 14.9782L10.1941 19.8156L7.88534 19.1134L10.0947 9.75365Z" fill="#00C94A"/>
</svg>
