<svg width="16" height="17" viewBox="0 0 16 17" fill="none" xmlns="http://www.w3.org/2000/svg">
<path d="M12.8 9.71436V7.71436H16V9.71436H12.8ZM13.76 16.7144L11.2 14.3144L12.16 12.7144L14.72 15.1144L13.76 16.7144ZM12.16 4.71436L11.2 3.11436L13.76 0.714355L14.72 2.31436L12.16 4.71436ZM2.4 15.7144V11.7144H1.6C1.16 11.7144 0.783333 11.5185 0.47 11.1269C0.156667 10.7352 0 10.2644 0 9.71436V7.71436C0 7.16436 0.156667 6.69352 0.47 6.30186C0.783333 5.91019 1.16 5.71436 1.6 5.71436H4.8L8.8 2.71436V14.7144L4.8 11.7144H4V15.7144H2.4ZM9.6 12.0644V5.36436C9.96 5.76436 10.25 6.25186 10.47 6.82686C10.69 7.40186 10.8 8.03102 10.8 8.71436C10.8 9.39769 10.69 10.0269 10.47 10.6019C10.25 11.1769 9.96 11.6644 9.6 12.0644ZM1.6 7.71436V9.71436H5.24L7.2 11.1644V6.26436L5.24 7.71436H1.6Z" fill="white"/>
</svg>
