<svg width="16" height="16" viewBox="0 0 16 16" fill="none" xmlns="http://www.w3.org/2000/svg">
<path d="M15.3957 4.8948H14.2917L14.3006 4.86686L14.1819 4.5702C13.8159 3.65659 12.5427 0.630929 11.5326 0.0677152L11.413 0H4.58786L4.46824 0.0677152C3.45639 0.630929 2.18496 3.65659 1.81814 4.5702L1.69938 4.86686L1.70916 4.8948H0.605168C0.272019 4.8948 0 5.17963 0 5.53218V6.20825C0 6.55972 0.272019 6.84563 0.605168 6.84563H0.956034C0.919706 7.0606 0.895768 7.28201 0.895768 7.51418V10.5495C0.895768 11.461 1.19525 12.2628 1.65067 12.7583V15.267C1.65067 15.6733 1.92178 16 2.25493 16H3.61677C3.94992 16 4.22108 15.6733 4.22108 15.267V13.2796H11.7789V15.267C11.7789 15.6733 12.0501 16 12.3841 16H13.7442C14.08 16 14.3493 15.6733 14.3493 15.267V12.7583C14.8065 12.2628 15.1051 11.461 15.1051 10.5495V7.51418C15.1051 7.28201 15.0812 7.0606 15.044 6.84563H15.3957C15.7297 6.84563 16 6.55972 16 6.20933V5.53218C16 5.17963 15.7297 4.8948 15.3957 4.8948ZM4.88205 1.46715H11.117C11.5308 1.8455 12.3123 3.35241 12.9175 4.78302H3.08515C3.68854 3.35241 4.47005 1.8455 4.88205 1.46715Z" fill="white"/>
</svg>
