<svg width="16" height="17" viewBox="0 0 16 17" fill="none" xmlns="http://www.w3.org/2000/svg">
<path d="M1.59006 15.6668C1.1528 15.6668 0.778468 15.5176 0.467081 15.2192C0.155694 14.9208 0 14.562 0 14.143V3.47633C0 3.05728 0.155694 2.69855 0.467081 2.40014C0.778468 2.10173 1.1528 1.95252 1.59006 1.95252H2.38509V0.428711H3.97516V1.95252H10.3354V0.428711H11.9255V1.95252H12.7205C13.1578 1.95252 13.5321 2.10173 13.8435 2.40014C14.1549 2.69855 14.3106 3.05728 14.3106 3.47633V8.04776H12.7205V6.52395H1.59006V14.143H7.15528V15.6668H1.59006ZM15.205 11.8573L13.5155 10.2382L14.0919 9.68585C14.2377 9.54617 14.4232 9.47633 14.6484 9.47633C14.8737 9.47633 15.0592 9.54617 15.205 9.68585L15.7814 10.2382C15.9271 10.3779 16 10.5557 16 10.7716C16 10.9874 15.9271 11.1652 15.7814 11.3049L15.205 11.8573ZM8.74534 16.4287V14.8097L12.959 10.7716L14.6484 12.3906L10.4348 16.4287H8.74534ZM1.59006 5.00014H12.7205V3.47633H1.59006V5.00014Z" fill="white"/>
</svg>
