<svg width="20" height="16" viewBox="0 0 20 16" fill="none" xmlns="http://www.w3.org/2000/svg">
<path d="M13.7273 8.39646L12.4091 7.23695C12.5455 6.61055 12.3409 6.02413 11.7955 5.47769C11.25 4.93126 10.5455 4.71801 9.68182 4.83796L8.36364 3.67845C8.62121 3.57183 8.88258 3.49186 9.14773 3.43855C9.41288 3.38524 9.69697 3.35859 10 3.35859C11.1364 3.35859 12.1023 3.70844 12.8977 4.40814C13.6932 5.10785 14.0909 5.95749 14.0909 6.95707C14.0909 7.22363 14.0606 7.47352 14 7.70676C13.9394 7.93999 13.8485 8.16989 13.7273 8.39646ZM16.6364 10.9154L15.3182 9.79588C15.8939 9.40937 16.4053 8.98622 16.8523 8.52641C17.2992 8.0666 17.6818 7.54349 18 6.95707C17.2424 5.61097 16.1553 4.54142 14.7386 3.74842C13.322 2.95542 11.7424 2.55892 10 2.55892C9.56061 2.55892 9.12879 2.58558 8.70455 2.63889C8.2803 2.6922 7.86364 2.77217 7.45455 2.87879L6.04545 1.63931C6.66667 1.41274 7.30303 1.24281 7.95455 1.12952C8.60606 1.01624 9.28788 0.959596 10 0.959596C12.2879 0.959596 14.3258 1.51603 16.1136 2.62889C17.9015 3.74176 19.197 5.18448 20 6.95707C19.6515 7.74341 19.1932 8.4731 18.625 9.14615C18.0568 9.8192 17.3939 10.409 16.6364 10.9154ZM17.0909 15.8333L13.2727 12.5147C12.7424 12.6613 12.2083 12.7713 11.6705 12.8446C11.1326 12.9179 10.5758 12.9545 10 12.9545C7.71212 12.9545 5.67424 12.3981 3.88636 11.2852C2.09848 10.1724 0.80303 8.72966 0 6.95707C0.318182 6.2507 0.719697 5.59431 1.20455 4.9879C1.68939 4.38149 2.24242 3.83838 2.86364 3.35859L0.363636 1.11953L1.63636 0L18.3636 14.7138L17.0909 15.8333ZM4.13636 4.47811C3.69697 4.82464 3.29545 5.20448 2.93182 5.61763C2.56818 6.03079 2.25758 6.47727 2 6.95707C2.75758 8.30317 3.8447 9.37272 5.26136 10.1657C6.67803 10.9587 8.25758 11.3552 10 11.3552C10.303 11.3552 10.5985 11.3386 10.8864 11.3052C11.1742 11.2719 11.4697 11.2353 11.7727 11.1953L10.9545 10.4356C10.7879 10.4756 10.6288 10.5056 10.4773 10.5256C10.3258 10.5456 10.1667 10.5556 10 10.5556C8.86364 10.5556 7.89773 10.2057 7.10227 9.506C6.30682 8.80629 5.90909 7.95665 5.90909 6.95707C5.90909 6.81047 5.92045 6.67052 5.94318 6.53725C5.96591 6.40397 6 6.26403 6.04545 6.11742L4.13636 4.47811Z" fill="#067BC2"/>
</svg>
