<svg width="18" height="13" viewBox="0 0 18 13" fill="none" xmlns="http://www.w3.org/2000/svg">
<path d="M9 10.4C10.0227 10.4 10.892 10.0208 11.608 9.2625C12.3239 8.50417 12.6818 7.58333 12.6818 6.5C12.6818 5.41667 12.3239 4.49583 11.608 3.7375C10.892 2.97917 10.0227 2.6 9 2.6C7.97727 2.6 7.10795 2.97917 6.39205 3.7375C5.67614 4.49583 5.31818 5.41667 5.31818 6.5C5.31818 7.58333 5.67614 8.50417 6.39205 9.2625C7.10795 10.0208 7.97727 10.4 9 10.4ZM9 8.84C8.38636 8.84 7.86477 8.6125 7.43523 8.1575C7.00568 7.7025 6.79091 7.15 6.79091 6.5C6.79091 5.85 7.00568 5.2975 7.43523 4.8425C7.86477 4.3875 8.38636 4.16 9 4.16C9.61364 4.16 10.1352 4.3875 10.5648 4.8425C10.9943 5.2975 11.2091 5.85 11.2091 6.5C11.2091 7.15 10.9943 7.7025 10.5648 8.1575C10.1352 8.6125 9.61364 8.84 9 8.84ZM9 13C7.00909 13 5.19545 12.4114 3.55909 11.2342C1.92273 10.0569 0.736364 8.47889 0 6.5C0.736364 4.52111 1.92273 2.94306 3.55909 1.76583C5.19545 0.588611 7.00909 0 9 0C10.9909 0 12.8045 0.588611 14.4409 1.76583C16.0773 2.94306 17.2636 4.52111 18 6.5C17.2636 8.47889 16.0773 10.0569 14.4409 11.2342C12.8045 12.4114 10.9909 13 9 13ZM9 11.2667C10.5409 11.2667 11.9557 10.8369 13.2443 9.9775C14.533 9.11806 15.5182 7.95889 16.2 6.5C15.5182 5.04111 14.533 3.88194 13.2443 3.0225C11.9557 2.16306 10.5409 1.73333 9 1.73333C7.45909 1.73333 6.04432 2.16306 4.75568 3.0225C3.46705 3.88194 2.48182 5.04111 1.8 6.5C2.48182 7.95889 3.46705 9.11806 4.75568 9.9775C6.04432 10.8369 7.45909 11.2667 9 11.2667Z" fill="white"/>
</svg>
