<svg width="20" height="19" viewBox="0 0 20 19" fill="none" xmlns="http://www.w3.org/2000/svg">
<path d="M7.43906 12.35L9.33906 12.35L9.33906 6.65L7.43906 6.65L7.43906 12.35ZM11.2391 12.35L13.1391 12.35L13.1391 6.65L11.2391 6.65L11.2391 12.35ZM10.2891 19C8.9749 19 7.7399 18.7506 6.58406 18.2519C5.42823 17.7531 4.42281 17.0763 3.56781 16.2213C2.71281 15.3663 2.03594 14.3608 1.53719 13.205C1.03844 12.0492 0.789063 10.8142 0.789063 9.5C0.789063 8.81917 0.860312 8.15021 1.00281 7.49313C1.14531 6.83604 1.35115 6.19875 1.62031 5.58125L3.09281 7.05375C2.96615 7.46542 2.86719 7.87313 2.79594 8.27688C2.72469 8.68062 2.68906 9.08833 2.68906 9.5C2.68906 11.6217 3.42531 13.4187 4.89781 14.8912C6.37031 16.3638 8.1674 17.1 10.2891 17.1C12.4107 17.1 14.2078 16.3638 15.6803 14.8912C17.1528 13.4187 17.8891 11.6217 17.8891 9.5C17.8891 7.37833 17.1528 5.58125 15.6803 4.10875C14.2078 2.63625 12.4107 1.9 10.2891 1.9C9.86156 1.9 9.44594 1.93562 9.04219 2.00688C8.63844 2.07812 8.23865 2.17708 7.84281 2.30375L6.39406 0.855C7.0274 0.57 7.66073 0.35625 8.29406 0.21375C8.9274 0.07125 9.5924 0 10.2891 0C11.6032 0 12.8382 0.249375 13.9941 0.748125C15.1499 1.24688 16.1553 1.92375 17.0103 2.77875C17.8653 3.63375 18.5422 4.63917 19.0409 5.795C19.5397 6.95083 19.7891 8.18583 19.7891 9.5C19.7891 10.8142 19.5397 12.0492 19.0409 13.205C18.5422 14.3608 17.8653 15.3663 17.0103 16.2213C16.1553 17.0763 15.1499 17.7531 13.9941 18.2519C12.8382 18.7506 11.6032 19 10.2891 19ZM4.11406 4.75C3.71823 4.75 3.38177 4.61146 3.10469 4.33437C2.8276 4.05729 2.68906 3.72083 2.68906 3.325C2.68906 2.92917 2.8276 2.59271 3.10469 2.31562C3.38177 2.03854 3.71823 1.9 4.11406 1.9C4.5099 1.9 4.84635 2.03854 5.12344 2.31562C5.40052 2.59271 5.53906 2.92917 5.53906 3.325C5.53906 3.72083 5.40052 4.05729 5.12344 4.33437C4.84635 4.61146 4.5099 4.75 4.11406 4.75Z" fill="#EEC80A"/>
</svg>
