<svg width="27" height="27" viewBox="0 0 27 27" fill="none" xmlns="http://www.w3.org/2000/svg">
<path d="M6.74167 2.49994C8.29907 1.60077 9.93328 1.05131 11.6443 0.851536C13.3553 0.651765 15.0099 0.766003 16.6082 1.19425C18.2064 1.6225 19.6965 2.35088 21.0784 3.3794C22.4603 4.40791 23.6008 5.70087 24.5 7.25827C25.93 9.7351 26.494 12.3804 26.1921 15.1942C25.8902 18.0079 24.7684 20.4632 22.8267 22.56L21.4292 20.1394C22.7358 18.4593 23.4645 16.5688 23.615 14.4679C23.7656 12.367 23.31 10.3971 22.2483 8.55827C20.7967 6.04391 18.6946 4.41796 15.942 3.68042C13.1895 2.94288 10.556 3.29994 8.04167 4.75161C5.52731 6.20327 3.90136 8.30538 3.16382 11.0579C2.42628 13.8105 2.78334 16.4439 4.23501 18.9583C5.29667 20.7971 6.77486 22.1766 8.66958 23.0967C10.5643 24.0168 12.5658 24.331 14.6742 24.0394L16.0717 26.46C13.2849 27.0932 10.5977 26.8371 8.00994 25.6917C5.42221 24.5462 3.41334 22.7351 1.98334 20.2583C1.08417 18.7009 0.534706 17.0667 0.334936 15.3556C0.135164 13.6446 0.249402 11.99 0.677652 10.3918C1.1059 8.7935 1.83428 7.30343 2.8628 5.92154C3.89131 4.53964 5.18427 3.39911 6.74167 2.49994ZM10.6417 9.25494L19.5208 11.6341L18.8547 14.1203L14.2538 12.9113L20.8675 24.3666L18.6158 25.6666L12.0021 14.2112L10.7487 18.8003L8.26251 18.1341L10.6417 9.25494Z" fill="#974848"/>
</svg>
