snap<svg width="17" height="12" viewBox="0 0 17 12" fill="none" xmlns="http://www.w3.org/2000/svg">
<path d="M7.16969 9L10.7973 5.5875L9.66873 4.5375L7.16969 6.8625L5.39617 5.25H6.60539V3.75H2.57468V7.5H4.18696V6.225L7.16969 9ZM1.76853 12C1.32516 12 0.945597 11.8531 0.629858 11.5594C0.31412 11.2656 0.15625 10.9125 0.15625 10.5V1.5C0.15625 1.0875 0.31412 0.734375 0.629858 0.440625C0.945597 0.146875 1.32516 0 1.76853 0H11.4422C11.8856 0 12.2652 0.146875 12.5809 0.440625C12.8967 0.734375 13.0545 1.0875 13.0545 1.5V4.875L16.2791 1.875V10.125L13.0545 7.125V10.5C13.0545 10.9125 12.8967 11.2656 12.5809 11.5594C12.2652 11.8531 11.8856 12 11.4422 12H1.76853ZM1.76853 10.5H11.4422V1.5H1.76853V10.5Z" fill="white"/>
</svg>
