<svg width="14" height="12" viewBox="0 0 14 12" fill="none" xmlns="http://www.w3.org/2000/svg">
<path d="M2.07004 8.66667H3.41361C3.41361 8.3 3.28205 7.98611 3.01894 7.725C2.75582 7.46389 2.43952 7.33333 2.07004 7.33333V8.66667ZM4.45488 8.66667H5.42897C5.42897 7.74444 5.10147 6.95833 4.44648 6.30833C3.79149 5.65833 2.99935 5.33333 2.07004 5.33333V6.3C2.73063 6.3 3.29325 6.53056 3.7579 6.99167C4.22255 7.45278 4.45488 8.01111 4.45488 8.66667ZM6.47023 8.66667H7.44432C7.44432 7.93333 7.30437 7.24167 7.02446 6.59167C6.74455 5.94167 6.36107 5.375 5.87403 4.89167C5.38698 4.40833 4.81596 4.02778 4.16097 3.75C3.50598 3.47222 2.80901 3.33333 2.07004 3.33333V4.3C3.29045 4.3 4.32892 4.725 5.18545 5.575C6.04197 6.425 6.47023 7.45556 6.47023 8.66667ZM4.0854 12V10.6667H1.39826C1.02878 10.6667 0.712477 10.5361 0.449361 10.275C0.186245 10.0139 0.0546875 9.7 0.0546875 9.33333V1.33333C0.0546875 0.966667 0.186245 0.652778 0.449361 0.391667C0.712477 0.130556 1.02878 0 1.39826 0H12.1468C12.5163 0 12.8326 0.130556 13.0957 0.391667C13.3588 0.652778 13.4904 0.966667 13.4904 1.33333V9.33333C13.4904 9.7 13.3588 10.0139 13.0957 10.275C12.8326 10.5361 12.5163 10.6667 12.1468 10.6667H9.45968V12H4.0854ZM1.39826 9.33333H12.1468V1.33333H1.39826V9.33333Z" fill="white"/>
</svg>
