<svg width="16" height="17" viewBox="0 0 16 17" fill="none" xmlns="http://www.w3.org/2000/svg">
<path d="M6 12.3144L11.6 8.71436L6 5.11436V12.3144ZM8 16.7144C6.89333 16.7144 5.85333 16.5044 4.88 16.0844C3.90667 15.6644 3.06 15.0944 2.34 14.3744C1.62 13.6544 1.05 12.8077 0.63 11.8344C0.21 10.861 0 9.82102 0 8.71436C0 7.60769 0.21 6.56769 0.63 5.59436C1.05 4.62102 1.62 3.77436 2.34 3.05436C3.06 2.33436 3.90667 1.76436 4.88 1.34436C5.85333 0.924355 6.89333 0.714355 8 0.714355C9.10667 0.714355 10.1467 0.924355 11.12 1.34436C12.0933 1.76436 12.94 2.33436 13.66 3.05436C14.38 3.77436 14.95 4.62102 15.37 5.59436C15.79 6.56769 16 7.60769 16 8.71436C16 9.82102 15.79 10.861 15.37 11.8344C14.95 12.8077 14.38 13.6544 13.66 14.3744C12.94 15.0944 12.0933 15.6644 11.12 16.0844C10.1467 16.5044 9.10667 16.7144 8 16.7144ZM8 15.1144C9.78667 15.1144 11.3 14.4944 12.54 13.2544C13.78 12.0144 14.4 10.501 14.4 8.71436C14.4 6.92769 13.78 5.41436 12.54 4.17436C11.3 2.93436 9.78667 2.31436 8 2.31436C6.21333 2.31436 4.7 2.93436 3.46 4.17436C2.22 5.41436 1.6 6.92769 1.6 8.71436C1.6 10.501 2.22 12.0144 3.46 13.2544C4.7 14.4944 6.21333 15.1144 8 15.1144Z" fill="white"/>
</svg>
