<svg width="39" height="41" viewBox="0 0 39 41" fill="none" xmlns="http://www.w3.org/2000/svg">
<path d="M2.99756 38.3184L2.99854 38.3174L18.9956 2.74316H18.9966C19.0175 2.6967 19.0663 2.66053 19.1274 2.65918C19.1899 2.65794 19.2366 2.69331 19.2544 2.72949L19.2573 2.73535L36.9761 38.4727C36.9834 38.4876 36.9878 38.5039 36.9878 38.5244V38.5283C36.9878 38.5456 36.9845 38.5616 36.979 38.5752C36.9738 38.5879 36.9657 38.6011 36.9526 38.6143L36.9507 38.6162L36.9155 38.6426C36.8759 38.6632 36.8253 38.6661 36.7778 38.6436L36.7769 38.6445L19.9165 30.5986L19.0112 30.167L18.1235 30.6338L3.20361 38.4814C3.14589 38.5118 3.07596 38.5012 3.03174 38.46C2.98475 38.4161 2.97934 38.3591 2.99756 38.3184Z" fill="white" stroke="black" stroke-width="4"/>
</svg>
