<svg width="23" height="23" viewBox="0 0 23 23" fill="none" xmlns="http://www.w3.org/2000/svg">
<path d="M2.2425 18.3425C1.53333 17.3842 0.982292 16.3252 0.589375 15.1656C0.196458 14.006 0 12.7842 0 11.5C0 10.2158 0.191667 8.99875 0.575 7.84875C0.958333 6.69875 1.50458 5.64458 2.21375 4.68625L3.88125 6.325C3.38292 7.05333 2.99479 7.85354 2.71688 8.72563C2.43896 9.59771 2.3 10.5225 2.3 11.5C2.3 12.4775 2.43896 13.4071 2.71688 14.2888C2.99479 15.1704 3.38292 15.9754 3.88125 16.7038L2.2425 18.3425ZM11.5 23C10.2158 23 8.99875 22.8083 7.84875 22.425C6.69875 22.0417 5.64458 21.4954 4.68625 20.7863L6.325 19.1187C7.05333 19.6171 7.85354 20.0052 8.72563 20.2831C9.59771 20.561 10.5225 20.7 11.5 20.7C12.4775 20.7 13.4023 20.561 14.2744 20.2831C15.1465 20.0052 15.9467 19.6171 16.675 19.1187L18.3138 20.7863C17.3554 21.4954 16.3013 22.0417 15.1512 22.425C14.0013 22.8083 12.7842 23 11.5 23ZM20.7575 18.3425L19.1187 16.7038C19.6171 15.9754 20.0052 15.1704 20.2831 14.2888C20.561 13.4071 20.7 12.4775 20.7 11.5C20.7 10.5225 20.561 9.59771 20.2831 8.72563C20.0052 7.85354 19.6171 7.05333 19.1187 6.325L20.7863 4.68625C21.4954 5.64458 22.0417 6.69875 22.425 7.84875C22.8083 8.99875 23 10.2158 23 11.5C23 12.7842 22.8035 14.006 22.4106 15.1656C22.0177 16.3252 21.4667 17.3842 20.7575 18.3425ZM6.29625 3.88125L4.6575 2.2425C5.61583 1.53333 6.67479 0.982292 7.83437 0.589375C8.99396 0.196458 10.2158 0 11.5 0C12.8033 0 14.03 0.196458 15.18 0.589375C16.33 0.982292 17.3842 1.53333 18.3425 2.2425L16.7038 3.88125C15.9754 3.38292 15.1704 2.99479 14.2888 2.71688C13.4071 2.43896 12.4775 2.3 11.5 2.3C10.5225 2.3 9.59292 2.43896 8.71125 2.71688C7.82958 2.99479 7.02458 3.38292 6.29625 3.88125ZM11.5 17.25C9.90917 17.25 8.55313 16.6894 7.43188 15.5681C6.31063 14.4469 5.75 13.0908 5.75 11.5C5.75 9.90917 6.31063 8.55313 7.43188 7.43188C8.55313 6.31063 9.90917 5.75 11.5 5.75C13.0908 5.75 14.4469 6.31063 15.5681 7.43188C16.6894 8.55313 17.25 9.90917 17.25 11.5C17.25 13.0908 16.6894 14.4469 15.5681 15.5681C14.4469 16.6894 13.0908 17.25 11.5 17.25Z" fill="#999999"/>
</svg>
