<svg width="16" height="19" viewBox="0 0 16 19" fill="none" xmlns="http://www.w3.org/2000/svg">
<path d="M8 18.7144C5.64444 18.7144 3.72222 18.4631 2.23333 17.9606C0.744444 17.4581 0 16.8094 0 16.0144C0 15.4894 0.322222 15.0319 0.966667 14.6419C1.61111 14.2519 2.5 13.9444 3.63333 13.7194L4.4 15.4294C4.02222 15.5044 3.67778 15.5981 3.36667 15.7106C3.05556 15.8231 2.84444 15.9244 2.73333 16.0144C3.02222 16.2544 3.68889 16.4644 4.73333 16.6444C5.77778 16.8244 6.86667 16.9144 8 16.9144C9.13333 16.9144 10.2278 16.8244 11.2833 16.6444C12.3389 16.4644 13.0111 16.2544 13.3 16.0144C13.1889 15.9244 12.9778 15.8231 12.6667 15.7106C12.3556 15.5981 12.0111 15.5044 11.6333 15.4294L12.4 13.7194C13.5333 13.9444 14.4167 14.2519 15.05 14.6419C15.6833 15.0319 16 15.4894 16 16.0144C16 16.8094 15.2556 17.4581 13.7667 17.9606C12.2778 18.4631 10.3556 18.7144 8 18.7144ZM8 12.7069C8.4 12.2119 8.82222 11.7581 9.26667 11.3456C9.71111 10.9331 10.1444 10.5394 10.5667 10.1644C11.3889 9.44436 12.0444 8.79561 12.5333 8.21811C13.0222 7.64061 13.2667 6.92436 13.2667 6.06936C13.2667 5.07936 12.7556 4.23936 11.7333 3.54936C10.7111 2.85936 9.46667 2.51436 8 2.51436C6.53333 2.51436 5.28889 2.85936 4.26667 3.54936C3.24444 4.23936 2.73333 5.07936 2.73333 6.06936C2.73333 6.92436 2.97778 7.64061 3.46667 8.21811C3.95556 8.79561 4.61111 9.44436 5.43333 10.1644C5.85556 10.5394 6.28889 10.9331 6.73333 11.3456C7.17778 11.7581 7.6 12.2119 8 12.7069ZM8 16.0144C7.75556 16.0144 7.53333 15.9656 7.33333 15.8681C7.13333 15.7706 6.98889 15.6394 6.9 15.4744C6.38889 14.4094 5.74444 13.5169 4.96667 12.7969C4.18889 12.0769 3.43333 11.3869 2.7 10.7269C1.98889 10.0669 1.37222 9.38436 0.85 8.67936C0.327778 7.97436 0.0666667 7.10436 0.0666667 6.06936C0.0666667 4.56936 0.833333 3.30186 2.36667 2.26686C3.9 1.23186 5.77778 0.714355 8 0.714355C10.2222 0.714355 12.1 1.23186 13.6333 2.26686C15.1667 3.30186 15.9333 4.56936 15.9333 6.06936C15.9333 7.10436 15.6778 7.97436 15.1667 8.67936C14.6556 9.38436 14.0333 10.0669 13.3 10.7269C12.5889 11.3869 11.8389 12.0769 11.05 12.7969C10.2611 13.5169 9.61111 14.4094 9.1 15.4744C9.01111 15.6394 8.86667 15.7706 8.66667 15.8681C8.46667 15.9656 8.24444 16.0144 8 16.0144ZM8 7.98186C8.77778 7.98186 9.44444 7.79436 10 7.41936C10.5556 7.04436 10.8333 6.59436 10.8333 6.06936C10.8333 5.54436 10.5556 5.09436 10 4.71936C9.44444 4.34436 8.77778 4.15686 8 4.15686C7.22222 4.15686 6.55556 4.34436 6 4.71936C5.44444 5.09436 5.16667 5.54436 5.16667 6.06936C5.16667 6.59436 5.44444 7.04436 6 7.41936C6.55556 7.79436 7.22222 7.98186 8 7.98186Z" fill="#FBFBFB"/>
</svg>
