<svg width="18" height="24" viewBox="0 0 18 24" fill="none" xmlns="http://www.w3.org/2000/svg">
<path d="M9 24C6.35 24 4.1875 23.665 2.5125 22.995C0.8375 22.325 0 21.46 0 20.4C0 19.7 0.3625 19.09 1.0875 18.57C1.8125 18.05 2.8125 17.64 4.0875 17.34L4.95 19.62C4.525 19.72 4.1375 19.845 3.7875 19.995C3.4375 20.145 3.2 20.28 3.075 20.4C3.4 20.72 4.15 21 5.325 21.24C6.5 21.48 7.725 21.6 9 21.6C10.275 21.6 11.5063 21.48 12.6938 21.24C13.8813 21 14.6375 20.72 14.9625 20.4C14.8375 20.28 14.6 20.145 14.25 19.995C13.9 19.845 13.5125 19.72 13.0875 19.62L13.95 17.34C15.225 17.64 16.2188 18.05 16.9313 18.57C17.6438 19.09 18 19.7 18 20.4C18 21.46 17.1625 22.325 15.4875 22.995C13.8125 23.665 11.65 24 9 24ZM9 15.99C9.45 15.33 9.925 14.725 10.425 14.175C10.925 13.625 11.4125 13.1 11.8875 12.6C12.8125 11.64 13.55 10.775 14.1 10.005C14.65 9.235 14.925 8.28 14.925 7.14C14.925 5.82 14.35 4.7 13.2 3.78C12.05 2.86 10.65 2.4 9 2.4C7.35 2.4 5.95 2.86 4.8 3.78C3.65 4.7 3.075 5.82 3.075 7.14C3.075 8.28 3.35 9.235 3.9 10.005C4.45 10.775 5.1875 11.64 6.1125 12.6C6.5875 13.1 7.075 13.625 7.575 14.175C8.075 14.725 8.55 15.33 9 15.99ZM9 20.4C8.725 20.4 8.475 20.335 8.25 20.205C8.025 20.075 7.8625 19.9 7.7625 19.68C7.1875 18.26 6.4625 17.07 5.5875 16.11C4.7125 15.15 3.8625 14.23 3.0375 13.35C2.2375 12.47 1.54375 11.56 0.95625 10.62C0.36875 9.68 0.075 8.52 0.075 7.14C0.075 5.14 0.9375 3.45 2.6625 2.07C4.3875 0.69 6.5 0 9 0C11.5 0 13.6125 0.69 15.3375 2.07C17.0625 3.45 17.925 5.14 17.925 7.14C17.925 8.52 17.6375 9.68 17.0625 10.62C16.4875 11.56 15.7875 12.47 14.9625 13.35C14.1625 14.23 13.3188 15.15 12.4313 16.11C11.5438 17.07 10.8125 18.26 10.2375 19.68C10.1375 19.9 9.975 20.075 9.75 20.205C9.525 20.335 9.275 20.4 9 20.4ZM9 9.69C9.875 9.69 10.625 9.44 11.25 8.94C11.875 8.44 12.1875 7.84 12.1875 7.14C12.1875 6.44 11.875 5.84 11.25 5.34C10.625 4.84 9.875 4.59 9 4.59C8.125 4.59 7.375 4.84 6.75 5.34C6.125 5.84 5.8125 6.44 5.8125 7.14C5.8125 7.84 6.125 8.44 6.75 8.94C7.375 9.44 8.125 9.69 9 9.69Z" fill="#FBFBFB"/>
</svg>
