<svg width="12" height="13" viewBox="0 0 12 13" fill="none" xmlns="http://www.w3.org/2000/svg">
<path d="M10 13C9.44444 13 8.97222 12.8104 8.58333 12.4312C8.19444 12.0521 8 11.5917 8 11.05C8 10.9742 8.00556 10.8956 8.01667 10.8144C8.02778 10.7331 8.04445 10.66 8.06667 10.595L3.36667 7.93C3.17778 8.0925 2.96667 8.21979 2.73333 8.31187C2.5 8.40396 2.25556 8.45 2 8.45C1.44444 8.45 0.972222 8.26042 0.583333 7.88125C0.194444 7.50208 0 7.04167 0 6.5C0 5.95833 0.194444 5.49792 0.583333 5.11875C0.972222 4.73958 1.44444 4.55 2 4.55C2.25556 4.55 2.5 4.59604 2.73333 4.68812C2.96667 4.78021 3.17778 4.9075 3.36667 5.07L8.06667 2.405C8.04445 2.34 8.02778 2.26688 8.01667 2.18562C8.00556 2.10437 8 2.02583 8 1.95C8 1.40833 8.19444 0.947917 8.58333 0.56875C8.97222 0.189583 9.44444 0 10 0C10.5556 0 11.0278 0.189583 11.4167 0.56875C11.8056 0.947917 12 1.40833 12 1.95C12 2.49167 11.8056 2.95208 11.4167 3.33125C11.0278 3.71042 10.5556 3.9 10 3.9C9.74444 3.9 9.5 3.85396 9.26667 3.76187C9.03333 3.66979 8.82222 3.5425 8.63333 3.38L3.93333 6.045C3.95556 6.11 3.97222 6.18312 3.98333 6.26437C3.99444 6.34562 4 6.42417 4 6.5C4 6.57583 3.99444 6.65437 3.98333 6.73562C3.97222 6.81687 3.95556 6.89 3.93333 6.955L8.63333 9.62C8.82222 9.4575 9.03333 9.33021 9.26667 9.23812C9.5 9.14604 9.74444 9.1 10 9.1C10.5556 9.1 11.0278 9.28958 11.4167 9.66875C11.8056 10.0479 12 10.5083 12 11.05C12 11.5917 11.8056 12.0521 11.4167 12.4312C11.0278 12.8104 10.5556 13 10 13ZM10 2.6C10.1889 2.6 10.3472 2.53771 10.475 2.41312C10.6028 2.28854 10.6667 2.13417 10.6667 1.95C10.6667 1.76583 10.6028 1.61146 10.475 1.48687C10.3472 1.36229 10.1889 1.3 10 1.3C9.81111 1.3 9.65278 1.36229 9.525 1.48687C9.39722 1.61146 9.33333 1.76583 9.33333 1.95C9.33333 2.13417 9.39722 2.28854 9.525 2.41312C9.65278 2.53771 9.81111 2.6 10 2.6ZM2 7.15C2.18889 7.15 2.34722 7.08771 2.475 6.96312C2.60278 6.83854 2.66667 6.68417 2.66667 6.5C2.66667 6.31583 2.60278 6.16146 2.475 6.03687C2.34722 5.91229 2.18889 5.85 2 5.85C1.81111 5.85 1.65278 5.91229 1.525 6.03687C1.39722 6.16146 1.33333 6.31583 1.33333 6.5C1.33333 6.68417 1.39722 6.83854 1.525 6.96312C1.65278 7.08771 1.81111 7.15 2 7.15ZM10 11.7C10.1889 11.7 10.3472 11.6377 10.475 11.5131C10.6028 11.3885 10.6667 11.2342 10.6667 11.05C10.6667 10.8658 10.6028 10.7115 10.475 10.5869C10.3472 10.4623 10.1889 10.4 10 10.4C9.81111 10.4 9.65278 10.4623 9.525 10.5869C9.39722 10.7115 9.33333 10.8658 9.33333 11.05C9.33333 11.2342 9.39722 11.3885 9.525 11.5131C9.65278 11.6377 9.81111 11.7 10 11.7Z" fill="white"/>
</svg>
