<svg width="13" height="13" viewBox="0 0 13 13" fill="none" xmlns="http://www.w3.org/2000/svg">
<path d="M11.3384 3.9335C11.3384 3.1535 11.0663 2.4935 10.5222 1.9535C9.97805 1.4135 9.31298 1.1435 8.52699 1.1435V0.333496C9.53467 0.333496 10.3912 0.683496 11.0966 1.3835C11.8019 2.0835 12.1546 2.9335 12.1546 3.9335H11.3384ZM9.7362 3.9335C9.7362 3.6035 9.6178 3.321 9.381 3.086C9.14419 2.851 8.85952 2.7335 8.52699 2.7335V1.9235C9.08121 1.9235 9.5523 2.1185 9.94026 2.5085C10.3282 2.8985 10.5323 3.3735 10.5524 3.9335H9.7362ZM1.27171 12.3335C0.939179 12.3335 0.654511 12.216 0.417706 11.981C0.180902 11.746 0.0625 11.4635 0.0625 11.1335V3.9335C0.0625 3.6035 0.180902 3.321 0.417706 3.086C0.654511 2.851 0.939179 2.7335 1.27171 2.7335H3.17622L4.29475 1.5335H7.92238V2.7335H4.82378L3.72037 3.9335H1.27171V11.1335H10.9454V4.5335H12.1546V11.1335C12.1546 11.4635 12.0362 11.746 11.7994 11.981C11.5626 12.216 11.278 12.3335 10.9454 12.3335H1.27171ZM6.10857 10.2335C6.86432 10.2335 7.50672 9.971 8.03575 9.446C8.56478 8.921 8.82929 8.2835 8.82929 7.5335C8.82929 6.7835 8.56478 6.146 8.03575 5.621C7.50672 5.096 6.86432 4.8335 6.10857 4.8335C5.35281 4.8335 4.71041 5.096 4.18138 5.621C3.65235 6.146 3.38784 6.7835 3.38784 7.5335C3.38784 8.2835 3.65235 8.921 4.18138 9.446C4.71041 9.971 5.35281 10.2335 6.10857 10.2335ZM6.10857 9.0335C5.68534 9.0335 5.32762 8.8885 5.03539 8.5985C4.74316 8.3085 4.59705 7.9535 4.59705 7.5335C4.59705 7.1135 4.74316 6.7585 5.03539 6.4685C5.32762 6.1785 5.68534 6.0335 6.10857 6.0335C6.53179 6.0335 6.88952 6.1785 7.18174 6.4685C7.47397 6.7585 7.62008 7.1135 7.62008 7.5335C7.62008 7.9535 7.47397 8.3085 7.18174 8.5985C6.88952 8.8885 6.53179 9.0335 6.10857 9.0335Z" fill="white"/>
</svg>
