<svg width="29" height="29" viewBox="0 0 29 29" fill="none" xmlns="http://www.w3.org/2000/svg">
<path d="M8.14607 6.71579L12.201 1.18289C12.4906 0.775877 12.8346 0.476974 13.2328 0.286184C13.6311 0.0953947 14.0474 0 14.4819 0C14.9164 0 15.3327 0.0953947 15.731 0.286184C16.1292 0.476974 16.4732 0.775877 16.7628 1.18289L20.8177 6.71579L26.9725 8.89079C27.6001 9.0943 28.0949 9.46952 28.4569 10.0164C28.819 10.5634 29 11.1675 29 11.8289C29 12.1342 28.9578 12.4395 28.8733 12.7447C28.7888 13.05 28.65 13.3425 28.4569 13.6224L24.4744 19.575L24.6192 25.8329C24.6434 26.7232 24.3658 27.4737 23.7865 28.0842C23.2072 28.6947 22.5314 29 21.7591 29C21.7108 29 21.4453 28.9618 20.9625 28.8855L14.4819 26.9776L8.00125 28.8855C7.88057 28.9364 7.74782 28.9682 7.603 28.9809C7.45818 28.9936 7.32543 29 7.20474 29C6.43238 29 5.75655 28.6947 5.17728 28.0842C4.598 27.4737 4.32043 26.7232 4.34457 25.8329L4.48939 19.5368L0.543071 13.6224C0.349979 13.3425 0.211194 13.05 0.126717 12.7447C0.0422389 12.4395 0 12.1342 0 11.8289C0 11.193 0.17499 10.6015 0.524969 10.0546C0.874948 9.50768 1.36371 9.11974 1.99126 8.89079L8.14607 6.71579ZM9.9201 9.34868L2.89638 11.7908L7.38577 18.6211L7.24095 25.9092L14.4819 23.8105L21.7228 25.9474L21.578 18.6211L26.0674 11.8671L19.0437 9.34868L14.4819 3.05263L9.9201 9.34868Z" fill="#FFFAFA"/>
</svg>
