<svg width="26" height="29" viewBox="0 0 26 29" fill="none" xmlns="http://www.w3.org/2000/svg">
<path d="M7.30337 6.71579L10.9388 1.18289C11.1985 0.775877 11.5069 0.476974 11.8639 0.286184C12.221 0.0953947 12.5943 0 12.9838 0C13.3733 0 13.7466 0.0953947 14.1036 0.286184C14.4607 0.476974 14.769 0.775877 15.0287 1.18289L18.6642 6.71579L24.1823 8.89079C24.7449 9.0943 25.1885 9.46952 25.5131 10.0164C25.8377 10.5634 26 11.1675 26 11.8289C26 12.1342 25.9621 12.4395 25.8864 12.7447C25.8107 13.05 25.6862 13.3425 25.5131 13.6224L21.9426 19.575L22.0724 25.8329C22.094 26.7232 21.8452 27.4737 21.3258 28.0842C20.8065 28.6947 20.2006 29 19.5081 29C19.4648 29 19.2268 28.9618 18.794 28.8855L12.9838 26.9776L7.17353 28.8855C7.06533 28.9364 6.94632 28.9682 6.81648 28.9809C6.68664 28.9936 6.56762 29 6.45943 29C5.76696 29 5.16105 28.6947 4.6417 28.0842C4.12235 27.4737 3.87349 26.7232 3.89513 25.8329L4.02497 19.5368L0.486891 13.6224C0.313774 13.3425 0.189347 13.05 0.113608 12.7447C0.0378693 12.4395 0 12.1342 0 11.8289C0 11.193 0.156887 10.6015 0.470662 10.0546C0.784436 9.50768 1.22264 9.11974 1.78527 8.89079L7.30337 6.71579ZM8.89388 9.34868L2.59675 11.7908L6.62172 18.6211L6.49189 25.9092L12.9838 23.8105L19.4757 25.9474L19.3458 18.6211L23.3708 11.8671L17.0737 9.34868L12.9838 3.05263L8.89388 9.34868Z" fill="#067BC2"/>
</svg>
