<svg width="20" height="17" viewBox="0 0 20 17" fill="none" xmlns="http://www.w3.org/2000/svg">
<path d="M3 17V8.5C3 6.13333 3.825 4.125 5.475 2.475C7.125 0.825 9.13333 0 11.5 0C13.8667 0 15.875 0.825 17.525 2.475C19.175 4.125 20 6.13333 20 8.5C20 10.8667 19.175 12.875 17.525 14.525C15.875 16.175 13.8667 17 11.5 17H3ZM5 15H11.5C13.3 15 14.8333 14.3667 16.1 13.1C17.3667 11.8333 18 10.3 18 8.5C18 6.7 17.3667 5.16667 16.1 3.9C14.8333 2.63333 13.3 2 11.5 2C9.7 2 8.16667 2.63333 6.9 3.9C5.63333 5.16667 5 6.7 5 8.5V15ZM11.5 12C12.4667 12 13.2917 11.6583 13.975 10.975C14.6583 10.2917 15 9.46667 15 8.5C15 7.53333 14.6583 6.70833 13.975 6.025C13.2917 5.34167 12.4667 5 11.5 5C10.5333 5 9.70833 5.34167 9.025 6.025C8.34167 6.70833 8 7.53333 8 8.5C8 9.46667 8.34167 10.2917 9.025 10.975C9.70833 11.6583 10.5333 12 11.5 12ZM11.5 10C11.0833 10 10.7292 9.85417 10.4375 9.5625C10.1458 9.27083 10 8.91667 10 8.5C10 8.08333 10.1458 7.72917 10.4375 7.4375C10.7292 7.14583 11.0833 7 11.5 7C11.9167 7 12.2708 7.14583 12.5625 7.4375C12.8542 7.72917 13 8.08333 13 8.5C13 8.91667 12.8542 9.27083 12.5625 9.5625C12.2708 9.85417 11.9167 10 11.5 10ZM0 17V12H2V17H0Z" fill="white"/>
</svg>
