<svg width="20" height="20" viewBox="0 0 20 20" fill="none" xmlns="http://www.w3.org/2000/svg">
<path d="M8 20C5.31667 17.7167 3.3125 15.5958 1.9875 13.6375C0.6625 11.6792 0 9.86667 0 8.2C0 5.7 0.804167 3.70833 2.4125 2.225C4.02083 0.741667 5.88333 0 8 0C10.1167 0 11.9792 0.741667 13.5875 2.225C15.1958 3.70833 16 5.7 16 8.2L18.1 6.1L19.5 7.5L15 12L10.5 7.5L11.9 6.1L14 8.2C14 6.38333 13.4208 4.89583 12.2625 3.7375C11.1042 2.57917 9.68333 2 8 2C6.31667 2 4.89583 2.57917 3.7375 3.7375C2.57917 4.89583 2 6.38333 2 8.2C2 9.38333 2.49167 10.7375 3.475 12.2625C4.45833 13.7875 5.96667 15.4833 8 17.35C8.33333 17.05 8.64167 16.7583 8.925 16.475L9.775 15.625C9.69167 15.4583 9.625 15.2792 9.575 15.0875C9.525 14.8958 9.5 14.7 9.5 14.5C9.5 13.8 9.74167 13.2083 10.225 12.725C10.7083 12.2417 11.3 12 12 12C12.7 12 13.2917 12.2417 13.775 12.725C14.2583 13.2083 14.5 13.8 14.5 14.5C14.5 15.2 14.2583 15.7917 13.775 16.275C13.2917 16.7583 12.7 17 12 17C11.8667 17 11.7458 16.9917 11.6375 16.975C11.5292 16.9583 11.4167 16.9333 11.3 16.9C10.8167 17.4 10.3042 17.9083 9.7625 18.425C9.22083 18.9417 8.63333 19.4667 8 20Z" fill="white"/>
</svg>
