<?xml version="1.0" encoding="utf-8"?>
<svg xmlns="http://www.w3.org/2000/svg" xmlns:xlink="http://www.w3.org/1999/xlink">
    <symbol viewBox="0 0 25 24" id="gas-pump" xmlns="http://www.w3.org/2000/svg">
        <path
            d="M.227 24V2.667c0-.734.288-1.361.865-1.884C1.67.261 2.364 0 3.174 0h8.843c.81 0 1.505.261 2.082.783.577.523.866 1.15.866 1.884V12h1.474c.81 0 1.504.261 2.081.783.578.523.866 1.15.866 1.884v6c0 .377.141.694.424.95.282.255.632.383 1.05.383.418 0 .768-.128 1.05-.383a1.23 1.23 0 0 0 .424-.95v-9.6a2.209 2.209 0 0 1-.7.216c-.246.034-.504.05-.774.05-1.032 0-1.904-.322-2.616-.966-.712-.645-1.069-1.434-1.069-2.367 0-.711.215-1.35.645-1.917.43-.566 1.001-.972 1.713-1.216l-3.095-2.8 1.548-1.4 5.453 4.8c.369.333.645.722.83 1.166.183.445.275.9.275 1.367v12.667c0 .933-.356 1.722-1.068 2.366-.712.645-1.584.967-2.616.967s-1.904-.322-2.616-.967c-.712-.644-1.069-1.433-1.069-2.366V14h-2.21v10H.227ZM3.174 9.333h8.843V2.667H3.174v6.666Zm17.686 0c.418 0 .768-.127 1.05-.383a1.23 1.23 0 0 0 .424-.95 1.23 1.23 0 0 0-.424-.95c-.282-.256-.633-.383-1.05-.383-.418 0-.768.127-1.05.383a1.23 1.23 0 0 0-.424.95c0 .378.141.694.424.95.282.256.632.383 1.05.383Zm-17.686 12h8.843V12H3.174v9.333Z" />
    </symbol>
    <symbol viewBox="0 0 512 512" id="paint-roller" xmlns="http://www.w3.org/2000/svg">
        <!--!Font Awesome Free 6.7.2 by @fontawesome - https://fontawesome.com License - https://fontawesome.com/license/free Copyright 2025 Fonticons, Inc.-->
        <path
            d="M0 64C0 28.7 28.7 0 64 0h288c35.3 0 64 28.7 64 64v64c0 35.3-28.7 64-64 64H64c-35.3 0-64-28.7-64-64V64zm160 288c0-17.7 14.3-32 32-32v-16c0-44.2 35.8-80 80-80h144c17.7 0 32-14.3 32-32V69.5c37.3 13.2 64 48.7 64 90.5v32c0 53-43 96-96 96H272c-8.8 0-16 7.2-16 16v16c17.7 0 32 14.3 32 32v128c0 17.7-14.3 32-32 32h-64c-17.7 0-32-14.3-32-32V352z" />
    </symbol>
</svg>