<?xml version="1.0" encoding="utf-8"?>
<svg xmlns="http://www.w3.org/2000/svg" xmlns:xlink="http://www.w3.org/1999/xlink">
    <symbol viewBox="0 0 576 512" id="book-open-solid" xmlns="http://www.w3.org/2000/svg">
        <!--!Font Awesome Free 6.7.2 by @fontawesome - https://fontawesome.com License - https://fontawesome.com/license/free Copyright 2025 Fonticons, Inc.-->
        <path
            d="M249.6 471.5c10.8 3.8 22.4-4.1 22.4-15.5V78.6c0-4.2-1.6-8.4-5-11C247.4 52 202.4 32 144 32 93.5 32 46.3 45.3 18.1 56.1 6.8 60.5 0 71.7 0 83.8v370.3c0 11.9 12.8 20.2 24.1 16.5C55.6 460.1 105.5 448 144 448c33.9 0 79 14 105.6 23.5zm76.8 0C353 462 398.1 448 432 448c38.5 0 88.4 12.1 119.9 22.6 11.3 3.8 24.1-4.6 24.1-16.5V83.8c0-12.1-6.8-23.3-18.1-27.6C529.7 45.3 482.5 32 432 32c-58.4 0-103.4 20-123 35.6-3.3 2.6-5 6.8-5 11V456c0 11.4 11.7 19.3 22.4 15.5z" />
    </symbol>
    <symbol viewBox="0 0 25 24" id="gas-pump" xmlns="http://www.w3.org/2000/svg">
        <path
            d="M.227 24V2.667c0-.734.288-1.361.865-1.884C1.67.261 2.364 0 3.174 0h8.843c.81 0 1.505.261 2.082.783.577.523.866 1.15.866 1.884V12h1.474c.81 0 1.504.261 2.081.783.578.523.866 1.15.866 1.884v6c0 .377.141.694.424.95.282.255.632.383 1.05.383.418 0 .768-.128 1.05-.383a1.23 1.23 0 0 0 .424-.95v-9.6a2.209 2.209 0 0 1-.7.216c-.246.034-.504.05-.774.05-1.032 0-1.904-.322-2.616-.966-.712-.645-1.069-1.434-1.069-2.367 0-.711.215-1.35.645-1.917.43-.566 1.001-.972 1.713-1.216l-3.095-2.8 1.548-1.4 5.453 4.8c.369.333.645.722.83 1.166.183.445.275.9.275 1.367v12.667c0 .933-.356 1.722-1.068 2.366-.712.645-1.584.967-2.616.967s-1.904-.322-2.616-.967c-.712-.644-1.069-1.433-1.069-2.366V14h-2.21v10H.227ZM3.174 9.333h8.843V2.667H3.174v6.666Zm17.686 0c.418 0 .768-.127 1.05-.383a1.23 1.23 0 0 0 .424-.95 1.23 1.23 0 0 0-.424-.95c-.282-.256-.633-.383-1.05-.383-.418 0-.768.127-1.05.383a1.23 1.23 0 0 0-.424.95c0 .378.141.694.424.95.282.256.632.383 1.05.383Zm-17.686 12h8.843V12H3.174v9.333Z" />
    </symbol>
    <symbol viewBox="0 0 512 512" id="gauge-simple-high-solid" xmlns="http://www.w3.org/2000/svg">
        <!--!Font Awesome Free 6.7.2 by @fontawesome - https://fontawesome.com License - https://fontawesome.com/license/free Copyright 2025 Fonticons, Inc.-->
        <path
            d="M0 256a256 256 0 1 1 512 0 256 256 0 1 1-512 0zm320 96c0-15.9-5.8-30.4-15.3-41.6L381.3 163c6.1-11.8 1.5-26.3-10.2-32.4s-26.2-1.5-32.4 10.2l-76.6 147.5c-2-.2-4-.3-6.1-.3-35.3 0-64 28.7-64 64s28.7 64 64 64 64-28.7 64-64z" />
    </symbol>
    <symbol viewBox="0 0 640 512" id="oil-can-solid" xmlns="http://www.w3.org/2000/svg">
        <!--!Font Awesome Free 6.7.2 by @fontawesome - https://fontawesome.com License - https://fontawesome.com/license/free Copyright 2025 Fonticons, Inc.-->
        <path
            d="M320 128c17.7 0 32-14.3 32-32s-14.3-32-32-32H192c-17.7 0-32 14.3-32 32s14.3 32 32 32h32v32H48c-26.5 0-48 21.5-48 48v64.8c0 19 11.2 36.2 28.5 43.9l67.5 30V368c0 26.5 21.5 48 48 48h259.1c18.4 0 35.8-7.9 48-21.7l182.4-206.6c12.3-13.9-.3-35.4-18.4-31.5L448 192l-50.5-25.2c-8.9-4.4-18.7-6.8-28.6-6.8H288v-32h32zM96 208v86.1l-48-21.3V208h48z" />
    </symbol>
    <symbol viewBox="0 0 512 512" id="paint-roller" xmlns="http://www.w3.org/2000/svg">
        <!--!Font Awesome Free 6.7.2 by @fontawesome - https://fontawesome.com License - https://fontawesome.com/license/free Copyright 2025 Fonticons, Inc.-->
        <path
            d="M0 64C0 28.7 28.7 0 64 0h288c35.3 0 64 28.7 64 64v64c0 35.3-28.7 64-64 64H64c-35.3 0-64-28.7-64-64V64zm160 288c0-17.7 14.3-32 32-32v-16c0-44.2 35.8-80 80-80h144c17.7 0 32-14.3 32-32V69.5c37.3 13.2 64 48.7 64 90.5v32c0 53-43 96-96 96H272c-8.8 0-16 7.2-16 16v16c17.7 0 32 14.3 32 32v128c0 17.7-14.3 32-32 32h-64c-17.7 0-32-14.3-32-32V352z" />
    </symbol>
    <symbol viewBox="0 0 512 512" id="route-solid" xmlns="http://www.w3.org/2000/svg">
        <!--!Font Awesome Free 6.7.2 by @fontawesome - https://fontawesome.com License - https://fontawesome.com/license/free Copyright 2025 Fonticons, Inc.-->
        <path
            d="M512 96c0 50.2-59.1 125.1-84.6 155-3.8 4.4-9.4 6.1-14.5 5H320c-17.7 0-32 14.3-32 32s14.3 32 32 32h96c53 0 96 43 96 96s-43 96-96 96H139.6c8.7-9.9 19.3-22.6 30-36.8 6.3-8.4 12.8-17.6 19-27.2H416c17.7 0 32-14.3 32-32s-14.3-32-32-32h-96c-53 0-96-43-96-96s43-96 96-96h39.8c-21-31.5-39.8-67.7-39.8-96 0-53 43-96 96-96s96 43 96 96zM117.1 489.1c-3.8 4.3-7.2 8.1-10.1 11.3l-1.8 2-.2-.2c-6 4.6-14.6 4-20-1.8C59.8 473 0 402.5 0 352c0-53 43-96 96-96s96 43 96 96c0 30-21.1 67-43.5 97.9-10.7 14.7-21.7 28-30.8 38.5l-.6.7zM128 352a32 32 0 1 0-64 0 32 32 0 1 0 64 0zm288-224a32 32 0 1 0 0-64 32 32 0 1 0 0 64z" />
    </symbol>
    <symbol viewBox="0 0 576 512" id="share-from-square-regular" xmlns="http://www.w3.org/2000/svg">
        <!--!Font Awesome Free 6.7.2 by @fontawesome - https://fontawesome.com License - https://fontawesome.com/license/free Copyright 2025 Fonticons, Inc.-->
        <path
            d="M400 255.4V208c0-8.8-7.2-16-16-16h-94.5c-50.9 0-93.9 33.5-108.3 79.6-3.3-9.4-5.2-19.8-5.2-31.6 0-61.9 50.1-112 112-112h96c8.8 0 16-7.2 16-16V64.6L506 160l-106 95.4zM336 240h16v48c0 17.7 14.3 32 32 32h3.7c7.9 0 15.5-2.9 21.4-8.2l139-125.1c7.6-6.8 11.9-16.5 11.9-26.7s-4.3-19.9-11.9-26.7L409.9 8.9C403.5 3.2 395.3 0 386.7 0 367.5 0 352 15.5 352 34.7V80h-64c-88.4 0-160 71.6-160 160 0 60.4 34.6 99.1 63.9 120.9 5.9 4.4 11.5 8.1 16.7 11.2 4.4 2.7 8.5 4.9 11.9 6.6 3.4 1.7 6.2 3 8.2 3.9 2.2 1 4.6 1.4 7.1 1.4h2.5c9.8 0 17.8-8 17.8-17.8 0-7.8-5.3-14.7-11.6-19.5-.4-.3-.7-.5-1.1-.8-1.7-1.1-3.4-2.5-5-4.1-.8-.8-1.7-1.6-2.5-2.6s-1.6-1.9-2.4-2.9c-1.8-2.5-3.5-5.3-5-8.5-2.6-6-4.3-13.3-4.3-22.4 0-36.1 29.3-65.5 65.5-65.5h46.5zM72 32C32.2 32 0 64.2 0 104v336c0 39.8 32.2 72 72 72h336c39.8 0 72-32.2 72-72v-64c0-13.3-10.7-24-24-24s-24 10.7-24 24v64c0 13.3-10.7 24-24 24H72c-13.3 0-24-10.7-24-24V104c0-13.3 10.7-24 24-24h64c13.3 0 24-10.7 24-24s-10.7-24-24-24H72z" />
    </symbol>
    <symbol viewBox="0 0 576 512" id="sitemap-solid" xmlns="http://www.w3.org/2000/svg">
        <!--!Font Awesome Free 6.7.2 by @fontawesome - https://fontawesome.com License - https://fontawesome.com/license/free Copyright 2025 Fonticons, Inc.-->
        <path
            d="M208 80c0-26.5 21.5-48 48-48h64c26.5 0 48 21.5 48 48v64c0 26.5-21.5 48-48 48h-8v40h152c30.9 0 56 25.1 56 56v32h8c26.5 0 48 21.5 48 48v64c0 26.5-21.5 48-48 48h-64c-26.5 0-48-21.5-48-48v-64c0-26.5 21.5-48 48-48h8v-32c0-4.4-3.6-8-8-8H312v40h8c26.5 0 48 21.5 48 48v64c0 26.5-21.5 48-48 48h-64c-26.5 0-48-21.5-48-48v-64c0-26.5 21.5-48 48-48h8v-40H112c-4.4 0-8 3.6-8 8v32h8c26.5 0 48 21.5 48 48v64c0 26.5-21.5 48-48 48H48c-26.5 0-48-21.5-48-48v-64c0-26.5 21.5-48 48-48h8v-32c0-30.9 25.1-56 56-56h152v-40h-8c-26.5 0-48-21.5-48-48V80z" />
    </symbol>
    <symbol viewBox="0 0 448 512" id="square-binary-solid" xmlns="http://www.w3.org/2000/svg">
        <!--!Font Awesome Free 6.7.2 by @fontawesome - https://fontawesome.com License - https://fontawesome.com/license/free Copyright 2025 Fonticons, Inc.-->
        <path
            d="M0 96c0-35.3 28.7-64 64-64h320c35.3 0 64 28.7 64 64v320c0 35.3-28.7 64-64 64H64c-35.3 0-64-28.7-64-64V96zm144 4c-24.3 0-44 19.7-44 44v48c0 24.3 19.7 44 44 44h32c24.3 0 44-19.7 44-44v-48c0-24.3-19.7-44-44-44h-32zm-4 44c0-2.2 1.8-4 4-4h32c2.2 0 4 1.8 4 4v48c0 2.2-1.8 4-4 4h-32c-2.2 0-4-1.8-4-4v-48zm140-44c-11 0-20 9-20 20 0 9.7 6.9 17.7 16 19.6V216c0 11 9 20 20 20s20-9 20-20v-96c0-11-9-20-20-20h-16zM132 296c0 9.7 6.9 17.7 16 19.6V392c0 11 9 20 20 20s20-9 20-20v-96c0-11-9-20-20-20h-16c-11 0-20 9-20 20zm96 24v48c0 24.3 19.7 44 44 44h32c24.3 0 44-19.7 44-44v-48c0-24.3-19.7-44-44-44h-32c-24.3 0-44 19.7-44 44zm44-4h32c2.2 0 4 1.8 4 4v48c0 2.2-1.8 4-4 4h-32c-2.2 0-4-1.8-4-4v-48c0-2.2 1.8-4 4-4z" />
    </symbol>
    <symbol viewBox="0 0 320 512" id="temperature-half-solid" xmlns="http://www.w3.org/2000/svg">
        <!--!Font Awesome Free 6.7.2 by @fontawesome - https://fontawesome.com License - https://fontawesome.com/license/free Copyright 2025 Fonticons, Inc.-->
        <path
            d="M160 64c-26.5 0-48 21.5-48 48v164.5c0 17.3-7.1 31.9-15.3 42.5C86.2 332.6 80 349.5 80 368c0 44.2 35.8 80 80 80s80-35.8 80-80c0-18.5-6.2-35.4-16.7-48.9-8.2-10.6-15.3-25.2-15.3-42.5V112c0-26.5-21.5-48-48-48zM48 112C48 50.2 98.1 0 160 0s112 50.1 112 112v164.4c0 .1.1.3.2.6.2.6.8 1.6 1.7 2.8 18.9 24.4 30.1 55 30.1 88.1 0 79.5-64.5 144-144 144S16 447.5 16 368c0-33.2 11.2-63.8 30.1-88.1.9-1.2 1.5-2.2 1.7-2.8.1-.3.2-.5.2-.6V112zm160 256c0 26.5-21.5 48-48 48s-48-21.5-48-48c0-20.9 13.4-38.7 32-45.3V208c0-8.8 7.2-16 16-16s16 7.2 16 16v114.7c18.6 6.6 32 24.4 32 45.3z" />
    </symbol>
    <symbol viewBox="0 0 640 512" id="truck-moving-solid" xmlns="http://www.w3.org/2000/svg">
        <!--!Font Awesome Free 6.7.2 by @fontawesome - https://fontawesome.com License - https://fontawesome.com/license/free Copyright 2025 Fonticons, Inc.-->
        <path
            d="M64 32C28.7 32 0 60.7 0 96v304c0 44.2 35.8 80 80 80 26.2 0 49.4-12.6 64-32 14.6 19.4 37.8 32 64 32 44.2 0 80-35.8 80-80 0-5.5-.6-10.8-1.6-16h163.2c-1 5.2-1.6 10.5-1.6 16 0 44.2 35.8 80 80 80s80-35.8 80-80c0-5.5-.6-10.8-1.6-16h1.6c17.7 0 32-14.3 32-32v-90.3c0-9.2-3.2-18.2-9-25.3l-58.8-71.8c-10.6-13-26.5-20.5-43.3-20.5L480 144V96c0-35.3-28.7-64-64-64H64zm521 224H480v-64h48.8c2.4 0 4.7 1.1 6.2 2.9l50 61.1zm-57 112a32 32 0 1 1 0 64 32 32 0 1 1 0-64zm-352 32a32 32 0 1 1 64 0 32 32 0 1 1-64 0zm-96-32a32 32 0 1 1 0 64 32 32 0 1 1 0-64z" />
    </symbol>
</svg>