<?xml version="1.0" encoding="UTF-8"?>
<svg version="1.1" xmlns="http://www.w3.org/2000/svg" width="512" height="512">
<path d="M0 0 C0.99585617 -0.00700928 1.99171234 -0.01401855 3.01774597 -0.02124023 C6.30052806 -0.03880561 9.58244393 -0.02720216 12.86523438 -0.01367188 C15.15157232 -0.01636719 17.43790914 -0.02024995 19.72424316 -0.02526855 C24.5123996 -0.03116165 29.30025724 -0.02260638 34.08837891 -0.00390625 C40.22198521 0.01888278 46.35489136 0.00575875 52.48847198 -0.01819611 C57.20856998 -0.03265893 61.92850233 -0.02804578 66.64860535 -0.01768494 C68.91000959 -0.01501901 71.17142894 -0.01828266 73.43281555 -0.02760315 C76.59493779 -0.0377763 79.75593051 -0.02225583 82.91796875 0 C84.31616096 -0.01214539 84.31616096 -0.01214539 85.74259949 -0.02453613 C91.29910759 0.04781549 94.58876329 0.74631593 98.95898438 4.51757812 C102.96452921 10.52589538 102.14228236 17.40882859 102.14648438 24.39257812 C102.15873047 25.45605469 102.17097656 26.51953125 102.18359375 27.61523438 C102.20788555 40.65183548 102.20788555 40.65183548 98.59179688 45.25976562 C93.13011029 49.36310529 89.20911159 49.66560036 82.52832031 49.63110352 C81.78646484 49.63124954 81.04460937 49.63139557 80.28027344 49.63154602 C77.8346054 49.63085082 75.38901406 49.62307679 72.94335938 49.61523438 C71.24513796 49.6133688 69.546916 49.61194556 67.84869385 49.61094666 C63.38365182 49.60713245 58.91864243 49.59731151 54.45361328 49.58624268 C49.8955123 49.57600499 45.33740604 49.57144398 40.77929688 49.56640625 C31.83917608 49.55568826 22.89908805 49.53810033 13.95898438 49.51757812 C13.95898438 56.44757813 13.95898438 63.37757813 13.95898438 70.51757812 C16.02301514 70.50186768 18.0870459 70.48615723 20.21362305 70.4699707 C27.03882557 70.42022592 33.86403617 70.38710964 40.68937206 70.36214161 C44.82694793 70.3464963 48.96433781 70.32527895 53.10180664 70.29125977 C57.09590288 70.25862553 61.08982039 70.24071657 65.08403969 70.2329464 C66.60666021 70.22741016 68.12927113 70.21659913 69.65181541 70.20038795 C71.78721507 70.17855899 73.92187948 70.17561338 76.05737305 70.17700195 C77.27204758 70.17034012 78.48672211 70.16367828 79.73820496 70.15681458 C84.78126964 70.72169459 87.20213073 72.67726479 90.54492188 76.38867188 C91.48360407 77.5703846 92.4127093 78.75974492 93.33398438 79.95507812 C94.10282959 80.93383911 94.10282959 80.93383911 94.88720703 81.93237305 C99.76662494 88.18143933 104.50651012 94.53747725 109.24511719 100.89355469 C113.46307493 106.54686432 117.74195671 112.146555 122.08398438 117.70507812 C151.10357888 154.86291855 151.10357888 154.86291855 151.19726562 164.04492188 C151.20533737 164.78964249 151.21340912 165.5343631 151.22172546 166.301651 C151.23555988 167.87775344 151.24628492 169.45388577 151.25415039 171.0300293 C151.27139424 173.4424685 151.31528618 175.85354784 151.359375 178.265625 C151.36949941 179.79621387 151.3780163 181.3268144 151.38476562 182.85742188 C151.40227371 183.57937241 151.4197818 184.30132294 151.43782043 185.04515076 C151.4237744 188.28122613 151.39507732 190.0459146 149.15112305 192.47290039 C145.93270334 194.00665893 143.47353856 193.8941375 139.95898438 193.51757812 C137.76464844 192.3269043 137.76464844 192.3269043 135.95898438 190.51757812 C135.50488281 188.06567383 135.50488281 188.06567383 135.56835938 185.19335938 C135.58769531 183.65131836 135.58769531 183.65131836 135.60742188 182.078125 C135.6409375 181.00626953 135.67445313 179.93441406 135.70898438 178.83007812 C135.72703125 177.74662109 135.74507813 176.66316406 135.76367188 175.546875 C135.81084929 172.86955666 135.87666188 170.19400903 135.95898438 167.51757812 C134.80497635 167.52646057 133.65096832 167.53534302 132.46199036 167.54449463 C121.58837182 167.62556936 110.71481458 167.68553829 99.84096241 167.72482681 C94.25053628 167.74570449 88.66035409 167.77402585 83.07006836 167.81933594 C77.67545358 167.86278663 72.28107349 167.88671387 66.88629723 167.8970871 C64.82777906 167.90447982 62.76927378 167.918916 60.71085548 167.94049835 C57.82819452 167.96952168 54.94650419 167.97353453 52.0637207 167.97167969 C51.2120784 167.98606079 50.3604361 168.00044189 49.48298645 168.01525879 C45.48095265 167.98738179 43.44109071 167.81276754 39.95243835 165.67669678 C36.8545136 162.32132104 36.82636108 159.50251333 36.78198242 155.11572266 C36.76914719 154.0109256 36.75631195 152.90612854 36.74308777 151.76785278 C36.73200737 149.97720901 36.73200737 149.97720901 36.72070312 148.15039062 C36.71263138 146.92351532 36.70455963 145.69664001 36.69624329 144.43258667 C36.68240512 141.83511773 36.67168177 139.23763062 36.66381836 136.64013672 C36.64658308 132.66534121 36.60269001 128.69137249 36.55859375 124.71679688 C36.54846886 122.19466758 36.53995212 119.67253121 36.53320312 117.15039062 C36.51569504 115.96067657 36.49818695 114.77096252 36.48014832 113.54519653 C36.50187585 105.29329522 36.50187585 105.29329522 38.8605957 101.29052734 C41.75009683 98.84915943 43.34549954 98.38971703 47.04150391 98.31225586 C47.88222443 98.29231064 48.72294495 98.27236542 49.58914185 98.2518158 C50.49751801 98.2351033 51.40589417 98.21839081 52.34179688 98.20117188 C53.27120087 98.18039078 54.20060486 98.15960968 55.15817261 98.13819885 C58.13336648 98.07270166 61.10865015 98.0138176 64.08398438 97.95507812 C66.09831666 97.91189307 68.11263979 97.86827878 70.12695312 97.82421875 C75.07087101 97.71702009 80.0148794 97.61575311 84.95898438 97.51757812 C84.45367187 96.89109375 83.94835937 96.26460938 83.42773438 95.61914062 C82.77804687 94.801875 82.12835938 93.98460937 81.45898438 93.14257812 C80.80929687 92.33046875 80.15960938 91.51835937 79.49023438 90.68164062 C77.95898438 88.51757812 77.95898438 88.51757812 77.95898438 86.51757812 C56.83898437 86.51757812 35.71898437 86.51757812 13.95898438 86.51757812 C13.95898438 128.09757813 13.95898438 169.67757813 13.95898438 212.51757812 C19.23898437 209.87757813 24.51898438 207.23757813 29.95898438 204.51757812 C43.9346838 199.92282763 58.91799446 202.10467192 72.08398438 208.14257812 C86.02738751 215.52437978 96.01674084 227.93114433 100.70898438 242.91210938 C102.54266597 250.59065105 101.95898438 257.34121391 101.95898438 265.51757812 C113.17898438 265.51757812 124.39898437 265.51757812 135.95898438 265.51757812 C135.92417969 262.01519531 135.889375 258.5128125 135.85351562 254.90429688 C135.83013099 251.51864436 135.81190814 248.13300079 135.79418945 244.74731445 C135.7790869 242.39115381 135.75860346 240.03502135 135.73266602 237.67895508 C135.69634781 234.29566501 135.67927271 230.91274605 135.66601562 227.52929688 C135.65053177 226.47296555 135.63504791 225.41663422 135.61909485 224.32829285 C135.61886826 223.34750259 135.61864166 222.36671234 135.6184082 221.35620117 C135.60841545 220.06047432 135.60841545 220.06047432 135.59822083 218.73857117 C136.03947342 216.022058 136.80102902 215.1731836 138.95898438 213.51757812 C142.00554004 212.4753354 143.54693091 212.39300382 146.64648438 213.33007812 C148.95898437 214.51757812 148.95898437 214.51757812 150.95898438 216.51757812 C151.22640991 218.92634583 151.22640991 218.92634583 151.24951172 221.98950195 C151.26865128 223.70687309 151.26865128 223.70687309 151.28817749 225.4589386 C151.29151596 227.32294563 151.29151596 227.32294563 151.29492188 229.22460938 C151.30157867 230.49729172 151.30823547 231.76997406 151.31509399 233.08122253 C151.32523746 235.77898089 151.33077372 238.47633654 151.32958984 241.17407227 C151.32938697 244.62430984 151.35664917 248.07372077 151.39113426 251.5237627 C151.41878295 254.81984713 151.41755367 258.11592472 151.41992188 261.41210938 C151.43429291 262.64870804 151.44866394 263.8853067 151.46347046 265.15937805 C151.4573172 266.31374863 151.45116394 267.4681192 151.44482422 268.6574707 C151.44767426 269.67069901 151.45052429 270.68392731 151.45346069 271.7278595 C150.81804932 275.31270041 149.49212743 276.93980302 146.95898438 279.51757812 C144.0013316 281.48479963 141.7063824 281.76353188 138.19042969 281.74462891 C137.24975647 281.74447784 136.30908325 281.74432678 135.33990479 281.74417114 C134.3324823 281.73384857 133.32505981 281.723526 132.28710938 281.71289062 C131.24955505 281.71006073 130.21200073 281.70723083 129.14300537 281.70431519 C125.83154736 281.69312677 122.52036054 281.6680244 119.20898438 281.64257812 C116.96289453 281.6325466 114.71680045 281.62342105 112.47070312 281.61523438 C106.96670447 281.59319183 101.4628638 281.55972745 95.95898438 281.51757812 C95.66419189 282.45239014 95.36939941 283.38720215 95.06567383 284.3503418 C91.3574561 294.96289609 81.36014299 302.14708253 71.95898438 307.51757812 C57.79110884 313.9591437 41.82705416 314.65137539 27.06835938 309.77148438 C18.18418712 306.18879682 10.33893462 300.68884002 3.95898438 293.51757812 C3.58878174 292.62304932 3.2185791 291.72852051 2.8371582 290.80688477 C1.22151078 287.25119393 -0.08234959 285.10189871 -3.04101562 282.51757812 C-9.72145844 280.49117148 -17.08314178 281.16419803 -23.97851562 281.33007812 C-25.92186351 281.33704121 -27.86523588 281.33904583 -29.80859375 281.3359375 C-34.55493983 281.33911625 -39.29593292 281.41005971 -44.04101562 281.51757812 C-43.86183594 282.62488281 -43.68265625 283.7321875 -43.49804688 284.87304688 C-43.04101562 288.51757812 -43.04101562 288.51757812 -43.72851562 290.83007812 C-45.41217033 292.99477703 -46.39285552 293.73028728 -49.04101562 294.51757812 C-52.54101562 294.51757812 -52.54101562 294.51757812 -56.04101562 293.51757812 C-59.00865751 289.98849047 -60.31228062 286.83941563 -62.04101562 282.51757812 C-71.94101562 282.18757813 -81.84101563 281.85757812 -92.04101562 281.51757812 C-92.70101563 283.49757813 -93.36101562 285.47757812 -94.04101562 287.51757812 C-103.52875895 300.25320039 -116.07678054 310.04235417 -132.04101562 312.51757812 C-141.92657727 313.3234663 -151.72837208 313.23129595 -161.04101562 309.51757812 C-162.00136719 309.13859375 -162.96171875 308.75960938 -163.95117188 308.36914062 C-172.25672774 304.66111181 -182.50529843 298.27140736 -186.31835938 289.61914062 C-186.65996094 288.719375 -187.0015625 287.81960938 -187.35351562 286.89257812 C-189.25967642 284.0874082 -190.2822194 282.71794133 -193.60766602 281.83984375 C-194.56664795 281.78505859 -195.52562988 281.73027344 -196.51367188 281.67382812 C-197.55289795 281.61018066 -198.59212402 281.5465332 -199.6628418 281.48095703 C-204.4613204 281.35059686 -209.24353041 281.35839782 -214.04101562 281.51757812 C-214.4969812 282.69344482 -214.4969812 282.69344482 -214.9621582 283.89306641 C-219.31260158 294.47629028 -229.06844243 302.51683852 -239.04101562 307.51757812 C-253.14730968 313.39208255 -268.39332984 315.16519647 -283.05273438 309.83789062 C-296.29183228 303.98845913 -306.7412942 295.80312925 -313.04101562 282.51757812 C-313.50451248 280.87887612 -313.94363246 279.23300565 -314.35351562 277.58007812 C-315.30077265 274.43259363 -315.30077265 274.43259363 -317.79882812 272.46679688 C-319.99375324 271.73244475 -319.99375324 271.73244475 -322.34570312 271.20117188 C-325.5885015 270.37872301 -328.52798087 269.1424517 -331.60351562 267.83007812 C-332.63605469 267.39308594 -333.66859375 266.95609375 -334.73242188 266.50585938 C-335.49425781 266.17972656 -336.25609375 265.85359375 -337.04101562 265.51757812 C-337.18796875 266.06542969 -337.33492188 266.61328125 -337.48632812 267.17773438 C-339.04260675 272.67837435 -340.88316285 278.05259555 -342.91601562 283.39257812 C-343.14820801 284.03461182 -343.38040039 284.67664551 -343.61962891 285.33813477 C-345.29696095 289.63298463 -347.09927844 292.1026558 -351.04101562 294.51757812 C-354.5111995 294.45774737 -356.93422806 294.38353696 -359.71897888 292.20472717 C-361.67914704 289.70321134 -361.59101605 287.24459538 -361.4861145 284.16061401 C-360.78644343 280.00590626 -358.98833443 276.51031616 -357.17579651 272.73228455 C-349.53120178 256.70503354 -348.59803633 242.66947521 -349.05529785 224.96923828 C-349.16871003 220.23176738 -349.20881163 215.49330814 -349.23472595 210.75465393 C-349.25343721 208.25560069 -349.29512068 205.75656718 -349.36451721 203.25840759 C-349.49169583 194.12755067 -348.04499827 186.66100425 -341.91601562 179.64257812 C-333.58915411 172.19593453 -324.76981199 172.05961458 -314.04101562 172.51757812 C-314.8056311 170.76900513 -314.8056311 170.76900513 -315.58569336 168.98510742 C-321.86597317 154.52685568 -327.74921725 139.91939148 -333.54663086 125.26293945 C-334.86361944 121.93371773 -336.18649287 118.60686744 -337.51084232 115.28056812 C-338.54010565 112.6934084 -339.56617697 110.10499217 -340.59127617 107.51618004 C-341.31397942 105.69286976 -342.03954148 103.87069346 -342.76515198 102.04853821 C-343.19658005 100.95526718 -343.62800812 99.86199615 -344.07250977 98.7355957 C-344.64467979 97.29172234 -344.64467979 97.29172234 -345.22840881 95.81867981 C-346.04101562 93.51757812 -346.04101562 93.51757812 -346.04101562 91.51757812 C-347.09289062 91.45570313 -348.14476562 91.39382812 -349.22851562 91.33007812 C-353.74594752 90.36734674 -355.16359405 89.05269606 -358.04101562 85.51757812 C-361.25765982 80.48215743 -360.41298371 74.49597542 -360.41162109 68.72802734 C-360.4159879 66.65573524 -360.45231247 64.58558663 -360.49023438 62.51367188 C-360.49410156 61.19753906 -360.49796875 59.88140625 -360.50195312 58.52539062 C-360.5101709 57.32543457 -360.51838867 56.12547852 -360.52685547 54.88916016 C-359.83899181 50.11559378 -357.7700455 47.17528614 -354.32207489 43.86954308 C-351.21277269 42.02668539 -348.92850474 42.14000355 -345.32287598 42.1366272 C-344.6484944 42.13194723 -343.97411283 42.12726725 -343.27929544 42.12244546 C-341.02063205 42.11048392 -338.7625741 42.11995678 -336.50390625 42.12939453 C-334.88420762 42.12532933 -333.26451176 42.11998774 -331.64482117 42.11346436 C-327.24610035 42.09977879 -322.84759043 42.10509449 -318.44886589 42.11460161 C-313.84761864 42.12219178 -309.24638956 42.11515439 -304.6451416 42.11044312 C-296.91785436 42.10498369 -289.1906531 42.11218208 -281.46337891 42.12646484 C-272.5269432 42.14279172 -263.59071282 42.13750335 -254.65428209 42.12098563 C-246.98454546 42.10737608 -239.31487067 42.10544849 -231.64512587 42.11330163 C-227.06305036 42.11798108 -222.4810714 42.11859556 -217.89900208 42.10869217 C-213.59140717 42.10003251 -209.28407725 42.10602601 -204.976511 42.12337494 C-203.39466098 42.12734515 -201.81278869 42.1261966 -200.23094749 42.11958694 C-198.07338134 42.11140215 -195.91666699 42.12165482 -193.75915527 42.1366272 C-191.94732883 42.13832381 -191.94732883 42.13832381 -190.09889984 42.1400547 C-186.76290919 42.55191288 -185.3860267 43.1479994 -183.04101562 45.51757812 C-181.86693928 49.11807891 -181.71341887 50.79686525 -183.29101562 54.26757812 C-185.04101562 56.51757812 -185.04101562 56.51757812 -188.04101562 58.51757812 C-190.84646893 58.76367378 -190.84646893 58.76367378 -194.32414246 58.75808716 C-196.29924049 58.76221115 -196.29924049 58.76221115 -198.3142395 58.76641846 C-199.77679534 58.7593401 -201.23935026 58.75207048 -202.7019043 58.74462891 C-204.239273 58.74406487 -205.77664223 58.74438121 -207.31401062 58.74551392 C-211.49143271 58.74608872 -215.6687404 58.73431373 -219.84613585 58.720366 C-224.21035037 58.70787996 -228.57456738 58.70668982 -232.938797 58.70431519 C-241.2048092 58.69809416 -249.47076863 58.68167492 -257.73675758 58.66161621 C-267.14655606 58.63927657 -276.55635704 58.62826865 -285.96617544 58.61822534 C-305.32448627 58.59730923 -324.68274478 58.56171922 -344.04101562 58.51757812 C-344.04101562 64.12757813 -344.04101562 69.73757812 -344.04101562 75.51757812 C-307.1142766 75.6868198 -270.18797798 75.78926199 -233.26083797 75.79924514 C-228.89524589 75.80048395 -224.52965422 75.80228868 -220.1640625 75.80444336 C-218.86046868 75.80507249 -218.86046868 75.80507249 -217.53053963 75.80571433 C-203.48287801 75.81384156 -189.43574966 75.86774926 -175.38828123 75.93875907 C-160.96008351 76.01066751 -146.53241558 76.03295345 -132.10405445 76.00976151 C-123.2099329 75.99701165 -114.31763159 76.0223578 -105.42381036 76.09739675 C-99.31399319 76.1452278 -93.20534122 76.14459093 -87.09545863 76.10692624 C-83.57639107 76.08663062 -80.06064585 76.08665873 -76.54192352 76.14462471 C-57.00811473 76.46349762 -57.00811473 76.46349762 -40.88525295 66.54565746 C-39.7913053 65.42842582 -38.71034362 64.29829836 -37.64416695 63.1545347 C-35.01596527 60.47091279 -32.03709449 58.27040489 -29.04101562 56.01757812 C-23.12954807 51.41908421 -17.31962465 46.70057325 -11.54492188 41.93164062 C-10.91457031 41.41472656 -10.28421875 40.8978125 -9.63476562 40.36523438 C-9.08498047 39.91156494 -8.53519531 39.45789551 -7.96875 38.99047852 C-7.33259766 38.50442139 -6.69644531 38.01836426 -6.04101562 37.51757812 C-5.18812958 36.8365654 -4.33524353 36.15555267 -3.45651245 35.4539032 C0.81052581 33.03481936 3.73265422 32.97523356 8.53466797 33.06347656 C9.3743512 33.06289246 10.21403442 33.06230835 11.0791626 33.06170654 C13.83901117 33.06448074 16.5977633 33.09554062 19.35742188 33.12695312 C21.27698171 33.13441789 23.19654919 33.14010971 25.11611938 33.144104 C30.1567303 33.15934174 35.1968767 33.19860759 40.23730469 33.24291992 C45.38535275 33.28391274 50.53347622 33.30212359 55.68164062 33.32226562 C65.77432497 33.36510373 75.86654329 33.43543843 85.95898438 33.51757812 C85.95898438 27.90757813 85.95898438 22.29757813 85.95898438 16.51757812 C74.31802249 16.39932317 62.67933465 16.32842469 51.03776264 16.33879566 C45.6308676 16.34176325 40.22563938 16.3247176 34.8190918 16.26049805 C29.59232713 16.19917417 24.36796446 16.19229812 19.14095116 16.22174644 C17.15599287 16.22363681 15.17091478 16.20654562 13.18630409 16.16935158 C3.1163316 15.99277899 -4.83480254 15.92120918 -12.62890625 22.90942383 C-14.49935415 24.72783092 -16.26386763 26.60455916 -18.04101562 28.51757812 C-19.2720807 29.55631931 -20.52396545 30.57188576 -21.81054688 31.54101562 C-26.63892557 35.27231726 -31.44977173 39.01602851 -36.16601562 42.88867188 C-36.86364014 43.46117676 -37.56126465 44.03368164 -38.2800293 44.62353516 C-39.61380701 45.7212752 -40.94492716 46.8222565 -42.27270508 47.92724609 C-44.1723949 49.48949263 -46.10022892 51.00670489 -48.04101562 52.51757812 C-48.69852688 53.0403128 -49.35603813 53.56304747 -50.03347397 54.10162258 C-55.81820567 58.3642905 -60.0601526 59.38015189 -67.16308594 59.24633789 C-68.61604568 59.25488045 -68.61604568 59.25488045 -70.09835815 59.26359558 C-73.27271394 59.27463305 -76.44497075 59.24274364 -79.61914062 59.20898438 C-81.8363216 59.20540437 -84.05350719 59.20405046 -86.27069092 59.20481873 C-90.90406009 59.20013947 -95.53672883 59.17538477 -100.16992188 59.13500977 C-106.1073135 59.08392205 -112.0439397 59.072571 -117.98152542 59.07484531 C-122.55404966 59.07402969 -127.12640678 59.05757976 -131.69887543 59.03584099 C-133.88852424 59.02630126 -136.07819195 59.02038351 -138.26786041 59.01815987 C-141.32441006 59.01165386 -144.38014829 58.98539343 -147.43652344 58.95336914 C-148.79096054 58.95540848 -148.79096054 58.95540848 -150.17276001 58.95748901 C-155.40410827 58.87735461 -159.15416872 58.40442503 -163.04101562 54.51757812 C-163.62718828 47.36627174 -163.62718828 47.36627174 -161.58343506 44.4072113 C-157.80316537 41.59755569 -154.5247834 42.04335163 -149.93652344 42.17797852 C-149.01554367 42.18852264 -148.0945639 42.19906677 -147.14567566 42.20993042 C-145.14471397 42.23408274 -143.14384091 42.26672084 -141.14313507 42.30681038 C-137.96247852 42.36582181 -134.78313632 42.39229106 -131.60198975 42.40855408 C-122.55744695 42.45682049 -113.51428466 42.53247607 -104.47119141 42.70581055 C-98.935222 42.80956528 -93.40184961 42.84842929 -87.86495209 42.8474102 C-85.76784091 42.85915246 -83.67070939 42.89444094 -81.57444 42.95500374 C-68.95692762 43.30970818 -60.71794084 42.31081815 -51.19144058 33.55687809 C-50.03119461 32.43413005 -48.88054008 31.30137057 -47.74053192 30.15807915 C-45.02650572 27.53829682 -42.04372803 25.2928435 -39.04101562 23.01757812 C-33.13121713 18.41682713 -27.31971175 13.70064518 -21.54492188 8.93164062 C-20.91457031 8.41472656 -20.28421875 7.8978125 -19.63476562 7.36523438 C-19.08498047 6.91156494 -18.53519531 6.45789551 -17.96875 5.99047852 C-17.33259766 5.50442139 -16.69644531 5.01836426 -16.04101562 4.51757812 C-15.21835205 3.8378746 -14.39568848 3.15817108 -13.5480957 2.45787048 C-9.28709624 -0.34482687 -4.95594669 -0.04304979 0 0 Z M-9.10351562 61.20507812 C-9.72258789 61.69403564 -10.34166016 62.18299316 -10.97949219 62.68676758 C-14.39467079 65.39222671 -17.79212996 68.11896458 -21.17773438 70.86132812 C-22.19939697 71.6887854 -22.19939697 71.6887854 -23.24169922 72.53295898 C-24.60895046 73.6485539 -25.96998568 74.77181027 -27.32470703 75.90258789 C-30.22910296 78.31601451 -32.99962582 80.49256231 -36.24023438 82.45117188 C-39.24810522 84.30910066 -41.06780812 85.56673599 -43.04101562 88.51757812 C-44.08230783 93.39414701 -43.98778723 98.29149526 -43.88085938 103.25195312 C-43.8698281 106.20392122 -43.96072033 107.36411434 -45.36132812 110.04101562 C-47.82582029 112.20747618 -49.80616078 112.38554323 -53.04101562 112.51757812 C-55.7905589 111.55152238 -56.7310932 111.13742298 -58.04101562 108.51757812 C-58.37101562 102.90757812 -58.70101562 97.29757813 -59.04101562 91.51757812 C-77.52101563 91.51757812 -96.00101562 91.51757812 -115.04101562 91.51757812 C-115.04101562 118.24757813 -115.04101562 144.97757813 -115.04101562 172.51757812 C-96.56101562 172.51757812 -78.08101563 172.51757812 -59.04101562 172.51757812 C-58.83103204 160.80530181 -58.83103204 160.80530181 -58.65307617 149.0925293 C-58.62078915 147.6235092 -58.58741583 146.1545124 -58.55273438 144.68554688 C-58.54649048 143.92359009 -58.54024658 143.1616333 -58.53381348 142.37658691 C-58.3871726 137.00419852 -58.3871726 137.00419852 -56.63012695 134.53417969 C-54.6530516 133.26938605 -53.38100345 133.08450992 -51.04101562 133.08007812 C-50.36039062 133.06074219 -49.67976563 133.04140625 -48.97851562 133.02148438 C-47.04101562 133.51757812 -47.04101562 133.51757812 -45.4519043 135.0456543 C-43.49344683 138.47693684 -43.56199616 141.71395374 -43.52929688 145.56445312 C-43.51265991 146.24846191 -43.49602295 146.9324707 -43.47888184 147.63720703 C-43.42126233 150.18035468 -43.38887456 152.72402358 -43.35351562 155.26757812 C-43.25039063 160.96007812 -43.14726562 166.65257812 -43.04101562 172.51757812 C-29.51101563 172.51757812 -15.98101562 172.51757812 -2.04101562 172.51757812 C-2.04101562 134.23757812 -2.04101562 95.95757812 -2.04101562 56.51757812 C-4.44371134 56.51757812 -7.21609196 59.70649633 -9.10351562 61.20507812 Z M-329.04101562 91.51757812 C-321.99157237 109.95954027 -314.77083371 128.32022016 -307.41601562 146.64257812 C-306.40132416 149.17368049 -305.3871802 151.70500209 -304.37304688 154.23632812 C-301.93091545 160.33083322 -299.48660524 166.42445995 -297.04101562 172.51757812 C-290.11101562 172.51757812 -283.18101562 172.51757812 -276.04101562 172.51757812 C-276.04101562 145.78757812 -276.04101562 119.05757812 -276.04101562 91.51757812 C-293.53101563 91.51757812 -311.02101563 91.51757812 -329.04101562 91.51757812 Z M-260.04101562 91.51757812 C-260.04101562 118.24757813 -260.04101562 144.97757813 -260.04101562 172.51757812 C-241.56101562 172.51757812 -223.08101562 172.51757812 -204.04101562 172.51757812 C-204.04101562 145.78757812 -204.04101562 119.05757812 -204.04101562 91.51757812 C-222.52101563 91.51757812 -241.00101563 91.51757812 -260.04101562 91.51757812 Z M-188.04101562 91.51757812 C-188.04101562 118.24757813 -188.04101562 144.97757813 -188.04101562 172.51757812 C-169.23101562 172.51757812 -150.42101562 172.51757812 -131.04101562 172.51757812 C-131.04101562 145.78757812 -131.04101562 119.05757812 -131.04101562 91.51757812 C-149.85101563 91.51757812 -168.66101563 91.51757812 -188.04101562 91.51757812 Z M52.95898438 114.51757812 C52.95898438 126.72757813 52.95898438 138.93757813 52.95898438 151.51757812 C77.37898438 151.51757812 101.79898438 151.51757812 126.95898438 151.51757812 C124.97898437 148.87757813 122.99898438 146.23757812 120.95898438 143.51757812 C120.01539063 142.25558594 119.07179688 140.99359375 118.09960938 139.69335938 C117.62265625 139.05591797 117.14570313 138.41847656 116.65429688 137.76171875 C115.70573187 136.49397443 114.75779414 135.22576048 113.81054688 133.95703125 C112.80087708 132.60855515 111.76915046 131.27641543 110.72021484 129.95825195 C108.95898438 127.51757812 108.95898438 127.51757812 107.17041016 124.12963867 C104.5335786 119.46281172 101.95139577 115.35399023 96.5546875 113.84555054 C89.49379851 112.88570299 82.42493875 113.33433389 75.33398438 113.70507812 C73.1635847 113.77036183 70.99299638 113.82966443 68.82226562 113.8828125 C63.52603119 114.01430801 58.25615767 114.26827431 52.95898438 114.51757812 Z M-332.04101562 193.51757812 C-333.24724082 197.13625371 -333.1491848 200.44264063 -333.10351562 204.20507812 C-333.09900391 204.90697266 -333.09449219 205.60886719 -333.08984375 206.33203125 C-333.07808489 208.06058351 -333.06015016 209.78909178 -333.04101562 211.51757812 C-332.20570313 210.37289062 -332.20570313 210.37289062 -331.35351562 209.20507812 C-328.58439277 205.98690832 -326.34947189 203.82587229 -321.99468327 203.24429059 C-319.40793071 203.12955149 -316.83744415 203.11794539 -314.24816895 203.1366272 C-313.25512143 203.13194723 -312.26207391 203.12726725 -311.23893404 203.12244546 C-307.90785186 203.11046929 -304.57717907 203.11996316 -301.24609375 203.12939453 C-298.85940816 203.12533001 -296.47272445 203.1199888 -294.08604431 203.11346436 C-288.27435062 203.10119339 -282.46278726 203.10300533 -276.65108955 203.11170228 C-271.92774812 203.11847788 -267.20443926 203.11939608 -262.48109436 203.11613083 C-261.47265678 203.11544128 -261.47265678 203.11544128 -260.44384673 203.1147378 C-259.07809205 203.11377862 -257.71233738 203.11280598 -256.34658271 203.11182003 C-243.54037628 203.10326573 -230.73423428 203.11310088 -217.92803842 203.12922113 C-206.94011184 203.14262436 -195.95228034 203.14029628 -184.96435547 203.12646484 C-172.2039259 203.11040972 -159.44355279 203.1040897 -146.68311453 203.11330163 C-145.32238866 203.11425728 -143.96166278 203.11520039 -142.60093689 203.11613083 C-141.93143659 203.11659366 -141.2619363 203.11705648 -140.57214811 203.11753333 C-135.8545679 203.12012343 -131.13702352 203.11575181 -126.41944885 203.10869217 C-120.06977875 203.10003762 -113.72028853 203.10601696 -107.37063789 203.12337494 C-105.03775392 203.12734784 -102.70485486 203.12619207 -100.37197685 203.11958694 C-97.19239971 203.11141332 -94.01340231 203.12164286 -90.8338623 203.1366272 C-89.90633667 203.12993503 -88.97881104 203.12324287 -88.02317858 203.11634791 C-83.19664181 203.16059675 -79.9637084 203.38374403 -76.04101562 206.51757812 C-73.44236497 209.39493886 -72.10364428 212.43488395 -70.6809082 216.02050781 C-70.02056328 217.67176666 -70.02056328 217.67176666 -69.34687805 219.35638428 C-68.88113876 220.538797 -68.41539948 221.72120972 -67.93554688 222.93945312 C-67.45147873 224.15457581 -66.96741058 225.36969849 -66.46867371 226.62164307 C-65.18597768 229.84170388 -63.91055899 233.06459856 -62.63665771 236.28814697 C-61.33378742 239.58121739 -60.02408909 242.8715695 -58.71484375 246.16210938 C-56.14951046 252.61104397 -53.59560038 259.06433663 -51.04101562 265.51757812 C-36.85101563 265.51757812 -22.66101563 265.51757812 -8.04101562 265.51757812 C-7.71101563 259.90757812 -7.38101562 254.29757812 -7.04101562 248.51757812 C-3.99339658 236.42234003 -3.99339658 236.42234003 -2.04101562 232.51757812 C-1.95167157 231.09784539 -1.92342585 229.67400021 -1.92749023 228.25146484 C-1.92760353 226.93032181 -1.92760353 226.93032181 -1.92771912 225.58248901 C-1.9328804 224.6303653 -1.93804169 223.67824158 -1.94335938 222.69726562 C-1.94477432 221.72346954 -1.94618927 220.74967346 -1.94764709 219.74636841 C-1.95325589 216.62840739 -1.96580989 213.51051753 -1.97851562 210.39257812 C-1.98352949 208.28190208 -1.98809259 206.17122491 -1.9921875 204.06054688 C-2.00322818 198.87953291 -2.01997489 193.6985606 -2.04101562 188.51757812 C-43.21453467 188.40317364 -84.38803303 188.31505004 -125.56167922 188.26225148 C-130.42083979 188.25599782 -135.28000005 188.24952622 -140.13916016 188.24291992 C-141.10654548 188.24160837 -142.0739308 188.24029682 -143.07063083 188.23894552 C-158.74148621 188.2171795 -174.41225002 188.17775138 -190.08305104 188.13181414 C-206.15863071 188.0850828 -222.23416237 188.05728976 -238.30980718 188.04713565 C-248.23213082 188.04026959 -258.15419567 188.01857154 -268.07643966 187.97799579 C-274.87732854 187.95159843 -281.67808331 187.9435703 -288.47901972 187.95007124 C-292.4049072 187.95327885 -296.33034198 187.9483072 -300.25614929 187.92155075 C-303.85022545 187.89723383 -307.44354415 187.8959795 -311.03765504 187.91308365 C-312.95396221 187.91619948 -314.87026037 187.89461997 -316.78643858 187.87217158 C-323.61900289 187.93180847 -327.50474435 188.17177882 -332.04101562 193.51757812 Z M-318.04101562 218.51757812 C-319.18418481 221.25425588 -320.32546883 223.99173156 -321.45898438 226.73242188 C-322.60209164 229.48637195 -323.77860533 232.22420175 -324.96679688 234.95898438 C-325.61665841 236.47846347 -326.26639887 237.99799436 -326.91601562 239.51757812 C-327.23836182 240.24710693 -327.56070801 240.97663574 -327.89282227 241.72827148 C-329.99278358 246.56596033 -329.99278358 246.56596033 -329.04101562 251.51757812 C-326.50429182 252.88152347 -326.50429182 252.88152347 -323.47851562 253.76757812 C-322.46660156 254.10273438 -321.4546875 254.43789063 -320.41210938 254.78320312 C-319.62964844 255.02554688 -318.8471875 255.26789063 -318.04101562 255.51757812 C-317.91146484 254.31875 -317.91146484 254.31875 -317.77929688 253.09570312 C-316.19182592 240.68721452 -312.26761911 231.48688651 -304.61523438 221.59960938 C-302.94049758 219.81966424 -302.94049758 219.81966424 -303.04101562 218.51757812 C-307.99101562 218.51757812 -312.94101562 218.51757812 -318.04101562 218.51757812 Z M-292.85351562 231.26757812 C-299.8496348 239.94672596 -303.5075193 249.71937935 -302.97851562 260.89257812 C-301.45192116 273.05387558 -295.53451008 282.55716953 -285.99804688 290.14257812 C-284.06107984 291.44162189 -282.1429659 292.50962536 -280.04101562 293.51757812 C-279.39003906 293.8346875 -278.7390625 294.15179688 -278.06835938 294.47851562 C-269.36954308 298.02308002 -258.93711343 297.82892009 -250.10351562 294.89257812 C-239.90623859 290.57195408 -231.43941246 282.71856862 -226.81835938 272.58398438 C-222.55945459 261.26257416 -223.64401656 251.64662856 -228.04101562 240.51757812 C-233.5467889 229.71779208 -242.22763048 223.52272626 -253.29101562 219.26757812 C-267.94182097 216.33741706 -282.51270652 220.1881398 -292.85351562 231.26757812 Z M-224.04101562 218.51757812 C-222.06101563 221.15757812 -220.08101562 223.79757812 -218.04101562 226.51757812 C-210.47016889 238.82226585 -208.56586918 251.26318475 -209.04101562 265.51757812 C-204.75101563 265.51757812 -200.46101563 265.51757812 -196.04101562 265.51757812 C-196.01523438 264.36902344 -195.98945313 263.22046875 -195.96289062 262.03710938 C-195.50587168 247.88939249 -193.08151048 236.43761175 -185.04101562 224.51757812 C-183.72101563 222.53757812 -182.40101563 220.55757812 -181.04101562 218.51757812 C-195.23101562 218.51757812 -209.42101562 218.51757812 -224.04101562 218.51757812 Z M-170.85351562 231.26757812 C-179.31976167 241.67525647 -181.18788263 252.47917395 -180.04101562 265.51757812 C-177.84434412 276.28920826 -171.26376977 284.64441435 -162.47070312 291.00976562 C-152.77229708 297.0283906 -142.05783681 298.30355331 -130.91992188 295.82226562 C-120.40368175 292.35088539 -110.81881713 284.83366634 -105.68554688 274.89257812 C-101.11748822 263.81050082 -100.90600719 254.0286069 -104.71289062 242.63476562 C-109.11760349 232.29664544 -117.80460202 224.77592618 -128.04101562 220.51757812 C-142.94555473 214.78506308 -160.12517817 219.77293085 -170.85351562 231.26757812 Z M-102.04101562 218.51757812 C-101.6775 218.95585937 -101.31398438 219.39414062 -100.93945312 219.84570312 C-89.90072412 233.77148433 -86.50969043 247.98384673 -87.04101562 265.51757812 C-80.77101563 265.51757812 -74.50101562 265.51757812 -68.04101562 265.51757812 C-75.40269597 245.81431741 -75.40269597 245.81431741 -83.16601562 226.26757812 C-83.44840088 225.57865479 -83.73078613 224.88973145 -84.02172852 224.17993164 C-85.16400078 221.12175038 -85.16400078 221.12175038 -87.04101562 218.51757812 C-89.57150965 218.44444246 -92.07406399 218.42510285 -94.60351562 218.45507812 C-95.31443359 218.45958984 -96.02535156 218.46410156 -96.7578125 218.46875 C-98.51891576 218.48056948 -100.27997598 218.49850549 -102.04101562 218.51757812 Z M17.84960938 230.65820312 C9.39046166 240.99716145 6.96337513 251.33627264 7.95898438 264.51757812 C10.32623241 275.06874078 15.86960676 283.66925168 24.58398438 290.01367188 C34.05546443 296.01123737 42.82544713 297.37945322 53.95898438 296.51757812 C66.43672407 293.53343468 74.99857943 286.04845016 81.95898438 275.51757812 C86.44833738 267.11087462 87.27446674 257.61389925 85.27539062 248.34960938 C82.0331999 237.73513435 75.95462252 230.00883061 66.95898438 223.51757812 C50.28319733 215.02051776 31.28473165 217.024042 17.84960938 230.65820312 Z " fill="currentColor" transform="translate(361.041015625,99.482421875)"/>
<path d="M0 0 C6.4851048 4.7840937 10.04551685 11.16463712 11.34375 19.1015625 C11.66371742 25.79421443 9.4622521 31.69584518 5.9375 37.25 C0.60076415 42.91929209 -5.95421312 45.30443408 -13.625 45.5625 C-20.86882601 45.25570266 -25.27685651 43.28991612 -30.75 38.6875 C-36.28705204 32.07379895 -38.28089518 26.65889929 -38 18 C-36.91963909 10.93785134 -33.36721393 5.62582835 -28 1 C-19.75947409 -4.51959754 -8.61864936 -5.11275809 0 0 Z M-18.875 14.625 C-21.2452938 17.2741519 -22 18.45691847 -22 22 C-20.61442213 24.83713564 -19.22998296 26.77001704 -17 29 C-13.13349913 29.42961121 -10.88668951 29.6066823 -7.625 27.375 C-5.60005464 24.41546447 -5 22.5948199 -5 19 C-7.01495027 15.22196824 -8.33272434 14.20624884 -12.4375 12.9375 C-16.03334929 12.71745088 -16.03334929 12.71745088 -18.875 14.625 Z " fill="currentColor" transform="translate(111,336)"/>
<path d="M0 0 C6.42286265 3.6348033 10.30370066 9.0569208 12.625 16 C13.74688328 24.34917344 12.51378784 31.09673676 7.625 38 C3.05355247 43.12427374 -1.6068131 45.59793539 -8.5234375 46.3359375 C-16.70072362 46.43493612 -22.30537315 45.86776044 -28.34375 40.12890625 C-34.46343295 33.49506961 -35.85630629 28.28418029 -35.68359375 19.29296875 C-35.07442405 12.79258829 -32.87012547 8.05364599 -28.0625 3.625 C-19.60948698 -2.79500989 -9.83524074 -4.39099738 0 0 Z M-19.375 19 C-20.20833333 22 -20.20833333 22 -19.375 25 C-16.91905875 28.32274404 -15.4493356 29.77618008 -11.375 30.625 C-7.3006644 29.77618008 -5.83094125 28.32274404 -3.375 25 C-2.54166667 22 -2.54166667 22 -3.375 19 C-5.83094125 15.67725596 -7.3006644 14.22381992 -11.375 13.375 C-15.4493356 14.22381992 -16.91905875 15.67725596 -19.375 19 Z " fill="currentColor" transform="translate(419.375,335)"/>
<path d="M0 0 C5.61374816 5.45781071 8.28927215 11.29332535 8.5625 19.0625 C8.40028693 25.81461904 6.54442871 31.73915733 1.87109375 36.80078125 C-4.62208998 42.35519143 -11.26266472 43.98401535 -19.703125 43.59765625 C-27.28462442 42.57706979 -31.43045791 38.98687133 -36.3046875 33.28515625 C-40.78412097 26.78392443 -40.42463728 19.81609083 -39.75 12.1875 C-38.05195009 5.45978328 -33.28027989 1.09441006 -27.75 -2.8125 C-18.80475077 -7.38451627 -8.07178202 -5.32003815 0 0 Z M-21.625 13.25 C-24.00807858 16.0776684 -24.00807858 16.0776684 -24.3125 19.75 C-23.98536931 23.17497624 -23.98536931 23.17497624 -22.1875 25.625 C-18.80782196 27.79146028 -16.69016013 27.75038002 -12.75 27.1875 C-9.70667579 25.10522554 -8.90691811 23.72550495 -7.875 20.1875 C-7.74341072 17.02935738 -7.9336678 15.73036509 -9.75 13.1875 C-14.27208722 10.17277519 -17.16013268 10.04694301 -21.625 13.25 Z " fill="currentColor" transform="translate(235.75,337.8125)"/>
</svg>
