<svg xmlns="http://www.w3.org/2000/svg" width="25" height="24" viewBox="0 0 25 24" fill="none">
    <path
        d="M0.226562 24V2.66667C0.226562 1.93333 0.515184 1.30556 1.09243 0.783333C1.66967 0.261111 2.36359 0 3.17418 0H12.017C12.8276 0 13.5216 0.261111 14.0988 0.783333C14.6761 1.30556 14.9647 1.93333 14.9647 2.66667V12H16.4385C17.2491 12 17.943 12.2611 18.5202 12.7833C19.0975 13.3056 19.3861 13.9333 19.3861 14.6667V20.6667C19.3861 21.0444 19.5273 21.3611 19.8098 21.6167C20.0923 21.8722 20.4423 22 20.8599 22C21.2775 22 21.6275 21.8722 21.91 21.6167C22.1925 21.3611 22.3337 21.0444 22.3337 20.6667V11.0667C22.1127 11.1778 21.8793 11.25 21.6337 11.2833C21.388 11.3167 21.1301 11.3333 20.8599 11.3333C19.8282 11.3333 18.9562 11.0111 18.2439 10.3667C17.5316 9.72222 17.1754 8.93333 17.1754 8C17.1754 7.28889 17.3903 6.65 17.8202 6.08333C18.25 5.51667 18.8211 5.11111 19.5335 4.86667L16.4385 2.06667L17.986 0.666667L23.4391 5.46667C23.8075 5.8 24.0839 6.18889 24.2681 6.63333C24.4523 7.07778 24.5444 7.53333 24.5444 8V20.6667C24.5444 21.6 24.1883 22.3889 23.4759 23.0333C22.7636 23.6778 21.8916 24 20.8599 24C19.8282 24 18.9562 23.6778 18.2439 23.0333C17.5316 22.3889 17.1754 21.6 17.1754 20.6667V14H14.9647V24H0.226562ZM3.17418 9.33333H12.017V2.66667H3.17418V9.33333ZM20.8599 9.33333C21.2775 9.33333 21.6275 9.20556 21.91 8.95C22.1925 8.69444 22.3337 8.37778 22.3337 8C22.3337 7.62222 22.1925 7.30556 21.91 7.05C21.6275 6.79444 21.2775 6.66667 20.8599 6.66667C20.4423 6.66667 20.0923 6.79444 19.8098 7.05C19.5273 7.30556 19.3861 7.62222 19.3861 8C19.3861 8.37778 19.5273 8.69444 19.8098 8.95C20.0923 9.20556 20.4423 9.33333 20.8599 9.33333ZM3.17418 21.3333H12.017V12H3.17418V21.3333Z" />
</svg>